<svg width="293" height="130" viewBox="0 0 293 130" fill="none" xmlns="http://www.w3.org/2000/svg">
<g clip-path="url(#clip0_583_40)">
<path d="M198.251 11.5891C197.665 11.2181 197.02 10.9542 196.408 10.6244C196.012 10.41 195.59 10.2203 195.246 9.94821C194.66 9.48646 194.781 8.57945 195.392 8.18363C196.271 7.62293 197.725 7.93622 197.881 9.08243C197.881 9.10713 197.906 9.12367 197.932 9.12367H199.258C199.293 9.12367 199.319 9.09892 199.31 9.06595C199.241 8.27432 198.922 7.61466 198.337 7.19412C197.777 6.79007 197.14 6.57568 196.46 6.57568C192.955 6.57568 192.637 10.1296 194.522 11.2511C194.738 11.383 196.589 12.2735 197.244 12.6611C197.898 13.0486 198.105 13.7578 197.82 14.3185C197.562 14.8298 196.89 15.1843 196.219 15.1431C195.487 15.1019 194.919 14.7226 194.72 14.1289C194.686 14.0217 194.669 13.8155 194.669 13.7248C194.669 13.7001 194.643 13.6753 194.617 13.6753H193.179C193.154 13.6753 193.128 13.7001 193.128 13.7248C193.128 14.7226 193.386 15.275 194.092 15.7781C194.755 16.2563 195.478 16.4542 196.228 16.4542C198.191 16.4542 199.207 15.3905 199.413 14.2855C199.594 13.2053 199.258 12.2323 198.251 11.5891Z" fill="#161616"/>
<path d="M135.817 6.75732H135.18H134.482C134.456 6.75732 134.439 6.77381 134.431 6.79031L133.251 10.5174C133.234 10.5669 133.165 10.5669 133.148 10.5174L131.968 6.79031C131.959 6.76557 131.942 6.75732 131.916 6.75732H131.219H130.582H129.721C129.695 6.75732 129.669 6.78206 129.669 6.8068V16.3225C129.669 16.3472 129.695 16.372 129.721 16.372H131.159C131.184 16.372 131.21 16.3472 131.21 16.3225V9.09088C131.21 9.03316 131.296 9.02496 131.314 9.0744L132.502 12.8263L132.588 13.0901C132.596 13.1149 132.614 13.1231 132.64 13.1231H133.742C133.768 13.1231 133.785 13.1066 133.793 13.0901L133.879 12.8263L135.068 9.0744C135.085 9.01668 135.171 9.03316 135.171 9.09088V16.3225C135.171 16.3472 135.197 16.372 135.223 16.372H136.661C136.686 16.372 136.712 16.3472 136.712 16.3225V6.8068C136.712 6.78206 136.686 6.75732 136.661 6.75732H135.817Z" fill="#161616"/>
<path d="M176.234 6.75732C176.208 6.75732 176.191 6.77381 176.182 6.79031L175.003 10.5174C174.986 10.5669 174.917 10.5669 174.9 10.5174L173.72 6.79031C173.711 6.76557 173.694 6.75732 173.668 6.75732H171.481C171.455 6.75732 171.429 6.78206 171.429 6.8068V16.3225C171.429 16.3472 171.455 16.372 171.481 16.372H172.919C172.945 16.372 172.971 16.3472 172.971 16.3225V9.09088C172.971 9.03316 173.057 9.02496 173.074 9.0744L174.262 12.8263L174.348 13.0901C174.357 13.1149 174.374 13.1231 174.4 13.1231H175.502C175.528 13.1231 175.545 13.1066 175.554 13.0901L175.64 12.8263L176.828 9.0744C176.846 9.01668 176.932 9.03316 176.932 9.09088V16.3225C176.932 16.3472 176.958 16.372 176.983 16.372H178.421C178.447 16.372 178.473 16.3472 178.473 16.3225V6.8068C178.473 6.78206 178.447 6.75732 178.421 6.75732H176.234Z" fill="#161616"/>
<path d="M157.687 6.75732H155.009H153.571H150.894C150.868 6.75732 150.842 6.78206 150.842 6.8068V7.99417C150.842 8.01893 150.868 8.04368 150.894 8.04368H153.52V16.3225C153.52 16.3472 153.546 16.372 153.571 16.372H155.009C155.035 16.372 155.061 16.3472 155.061 16.3225V8.04368H157.687C157.713 8.04368 157.739 8.01893 157.739 7.99417V6.8068C157.739 6.78206 157.722 6.75732 157.687 6.75732Z" fill="#161616"/>
<path d="M166.169 16.3717H167.477C167.511 16.3717 167.537 16.3388 167.529 16.3058L164.825 6.7571C164.817 6.73237 164.799 6.72412 164.774 6.72412H164.274H163.396H162.897C162.871 6.72412 162.853 6.74062 162.845 6.7571L160.141 16.3058C160.133 16.3388 160.158 16.3717 160.193 16.3717H161.502C161.527 16.3717 161.545 16.3552 161.553 16.3388L162.337 13.5599C162.345 13.5352 162.363 13.5269 162.389 13.5269H165.282C165.308 13.5269 165.325 13.5434 165.334 13.5599L166.117 16.3388C166.126 16.3552 166.151 16.3717 166.169 16.3717ZM162.733 12.1664L163.783 8.44748C163.801 8.39803 163.87 8.39803 163.887 8.44748L164.937 12.1664C164.946 12.1993 164.92 12.2323 164.886 12.2323H162.785C162.75 12.2323 162.724 12.1993 162.733 12.1664Z" fill="#161616"/>
<path d="M188.487 16.3717H189.795C189.83 16.3717 189.856 16.3388 189.847 16.3058L187.143 6.7571C187.135 6.73237 187.118 6.72412 187.092 6.72412H186.593H185.714H185.215C185.189 6.72412 185.172 6.74062 185.163 6.7571L182.459 16.3058C182.451 16.3388 182.477 16.3717 182.511 16.3717H183.82C183.846 16.3717 183.863 16.3552 183.872 16.3388L184.655 13.5599C184.664 13.5352 184.681 13.5269 184.707 13.5269H187.6C187.626 13.5269 187.643 13.5434 187.652 13.5599L188.435 16.3388C188.444 16.3552 188.461 16.3717 188.487 16.3717ZM185.051 12.1664L186.101 8.44748C186.119 8.39803 186.188 8.39803 186.205 8.44748L187.255 12.1664C187.264 12.1993 187.238 12.2323 187.204 12.2323H185.103C185.068 12.2323 185.042 12.1993 185.051 12.1664Z" fill="#161616"/>
<path d="M142.55 14.9615V12.0095C142.55 11.9848 142.576 11.96 142.602 11.96H146.433C146.459 11.96 146.485 11.9353 146.485 11.9105V10.7231C146.485 10.6984 146.459 10.6737 146.433 10.6737H142.602C142.576 10.6737 142.55 10.6489 142.55 10.6242V8.10099C142.55 8.07623 142.576 8.05148 142.602 8.05148H146.959C146.985 8.05148 147.01 8.02672 147.01 8.00203V6.81461C147.01 6.78988 146.985 6.76514 146.959 6.76514H142.55H141.061C141.035 6.76514 141.009 6.78988 141.009 6.81461V8.05148V10.6819V11.9683V15.0192V16.322C141.009 16.3468 141.035 16.3715 141.061 16.3715H142.55H147.14C147.165 16.3715 147.191 16.3468 147.191 16.322V15.0687C147.191 15.044 147.165 15.0192 147.14 15.0192H142.593C142.567 15.011 142.55 14.9945 142.55 14.9615Z" fill="#161616"/>
<path d="M211.39 16.2891L206.413 11.3663C206.396 11.3498 206.396 11.3168 206.413 11.3004L210.891 6.8476C210.926 6.81461 210.9 6.76514 210.857 6.76514H209.023C209.006 6.76514 208.997 6.77338 208.988 6.78163L205.191 10.5582C205.157 10.5912 205.105 10.5664 205.105 10.5252V6.81461C205.105 6.78988 205.079 6.76514 205.053 6.76514H203.615C203.589 6.76514 203.563 6.78988 203.563 6.81461V16.3303C203.563 16.3551 203.589 16.3798 203.615 16.3798H205.053C205.079 16.3798 205.105 16.3551 205.105 16.3303V12.1414C205.105 12.1002 205.165 12.0755 205.191 12.1084L209.496 16.3633C209.505 16.3715 209.522 16.3798 209.53 16.3798H211.364C211.399 16.3715 211.425 16.3138 211.39 16.2891Z" fill="#161616"/>
<path d="M119.844 1.63623L111.139 7.8206L112.758 4.17595L119.844 1.63623Z" fill="#E17726" stroke="#E17726" stroke-width="0.25" stroke-linecap="round" stroke-linejoin="round"/>
<path d="M99.7649 1.63623L108.393 7.87832L106.851 4.17595L99.7649 1.63623Z" fill="#E27625" stroke="#E27625" stroke-width="0.25" stroke-linecap="round" stroke-linejoin="round"/>
<path d="M116.71 15.9756L114.394 19.3729L119.353 20.684L120.774 16.0499L116.71 15.9756Z" fill="#E27625" stroke="#E27625" stroke-width="0.25" stroke-linecap="round" stroke-linejoin="round"/>
<path d="M98.8436 16.0499L100.256 20.684L105.207 19.3729L102.899 15.9756L98.8436 16.0499Z" fill="#E27625" stroke="#E27625" stroke-width="0.25" stroke-linecap="round" stroke-linejoin="round"/>
<path d="M104.94 10.2368L103.562 12.2323L108.47 12.4467L108.306 7.37549L104.94 10.2368Z" fill="#E27625" stroke="#E27625" stroke-width="0.25" stroke-linecap="round" stroke-linejoin="round"/>
<path d="M114.669 10.2369L111.251 7.31787L111.139 12.4468L116.047 12.2324L114.669 10.2369Z" fill="#E27625" stroke="#E27625" stroke-width="0.25" stroke-linecap="round" stroke-linejoin="round"/>
<path d="M105.207 19.3731L108.177 17.996L105.62 16.083L105.207 19.3731Z" fill="#E27625" stroke="#E27625" stroke-width="0.25" stroke-linecap="round" stroke-linejoin="round"/>
<path d="M111.432 17.996L114.394 19.3731L113.989 16.083L111.432 17.996Z" fill="#E27625" stroke="#E27625" stroke-width="0.25" stroke-linecap="round" stroke-linejoin="round"/>
<path d="M114.394 19.3731L111.432 17.9961L111.673 19.8431L111.647 20.6265L114.394 19.3731Z" fill="#D5BFB2" stroke="#D5BFB2" stroke-width="0.25" stroke-linecap="round" stroke-linejoin="round"/>
<path d="M105.207 19.3731L107.962 20.6265L107.945 19.8431L108.177 17.9961L105.207 19.3731Z" fill="#D5BFB2" stroke="#D5BFB2" stroke-width="0.25" stroke-linecap="round" stroke-linejoin="round"/>
<path d="M108.014 14.8628L105.551 14.1702L107.29 13.4033L108.014 14.8628Z" fill="#233447" stroke="#233447" stroke-width="0.25" stroke-linecap="round" stroke-linejoin="round"/>
<path d="M111.596 14.8628L112.319 13.4033L114.067 14.1702L111.596 14.8628Z" fill="#233447" stroke="#233447" stroke-width="0.25" stroke-linecap="round" stroke-linejoin="round"/>
<path d="M105.207 19.3729L105.637 15.9756L102.899 16.0499L105.207 19.3729Z" fill="#CC6228" stroke="#CC6228" stroke-width="0.25" stroke-linecap="round" stroke-linejoin="round"/>
<path d="M113.972 15.9756L114.394 19.3729L116.71 16.0499L113.972 15.9756Z" fill="#CC6228" stroke="#CC6228" stroke-width="0.25" stroke-linecap="round" stroke-linejoin="round"/>
<path d="M116.047 12.2324L111.139 12.4468L111.595 14.8629L112.319 13.4033L114.067 14.1702L116.047 12.2324Z" fill="#CC6228" stroke="#CC6228" stroke-width="0.25" stroke-linecap="round" stroke-linejoin="round"/>
<path d="M105.551 14.1702L107.29 13.4033L108.014 14.8629L108.47 12.4468L103.562 12.2324L105.551 14.1702Z" fill="#CC6228" stroke="#CC6228" stroke-width="0.25" stroke-linecap="round" stroke-linejoin="round"/>
<path d="M103.562 12.2324L105.62 16.0832L105.551 14.1702L103.562 12.2324Z" fill="#E27525" stroke="#E27525" stroke-width="0.25" stroke-linecap="round" stroke-linejoin="round"/>
<path d="M114.067 14.1702L113.989 16.0832L116.047 12.2324L114.067 14.1702Z" fill="#E27525" stroke="#E27525" stroke-width="0.25" stroke-linecap="round" stroke-linejoin="round"/>
<path d="M108.47 12.4468L108.014 14.8629L108.591 17.7159L108.72 13.9558L108.47 12.4468Z" fill="#E27525" stroke="#E27525" stroke-width="0.25" stroke-linecap="round" stroke-linejoin="round"/>
<path d="M111.139 12.4468L110.898 13.9476L111.019 17.7159L111.596 14.8629L111.139 12.4468Z" fill="#E27525" stroke="#E27525" stroke-width="0.25" stroke-linecap="round" stroke-linejoin="round"/>
<path d="M111.596 14.8626L111.019 17.7156L111.432 17.996L113.989 16.083L114.067 14.1699L111.596 14.8626Z" fill="#F5841F" stroke="#F5841F" stroke-width="0.25" stroke-linecap="round" stroke-linejoin="round"/>
<path d="M105.551 14.1699L105.62 16.083L108.177 17.996L108.591 17.7156L108.014 14.8626L105.551 14.1699Z" fill="#F5841F" stroke="#F5841F" stroke-width="0.25" stroke-linecap="round" stroke-linejoin="round"/>
<path d="M111.647 20.6264L111.673 19.8431L111.449 19.6616H108.16L107.945 19.8431L107.962 20.6264L105.207 19.373L106.171 20.1317L108.126 21.4263H111.475L113.438 20.1317L114.394 19.373L111.647 20.6264Z" fill="#C0AC9D" stroke="#C0AC9D" stroke-width="0.25" stroke-linecap="round" stroke-linejoin="round"/>
<path d="M111.432 17.9961L111.019 17.7158H108.591L108.177 17.9961L107.945 19.8432L108.16 19.6618H111.449L111.673 19.8432L111.432 17.9961Z" fill="#161616" stroke="#161616" stroke-width="0.25" stroke-linecap="round" stroke-linejoin="round"/>
<path d="M120.215 8.22463L120.947 4.81088L119.844 1.63623L111.432 7.61448L114.67 10.2366L119.242 11.5148L120.249 10.3851L119.81 10.0799L120.507 9.4698L119.974 9.07398L120.671 8.56273L120.215 8.22463Z" fill="#763E1A" stroke="#763E1A" stroke-width="0.25" stroke-linecap="round" stroke-linejoin="round"/>
<path d="M98.6628 4.81088L99.4033 8.22463L98.9297 8.56273L99.6358 9.07398L99.1019 9.4698L99.7994 10.0799L99.3602 10.3851L100.368 11.5148L104.94 10.2366L108.177 7.61448L99.7649 1.63623L98.6628 4.81088Z" fill="#763E1A" stroke="#763E1A" stroke-width="0.25" stroke-linecap="round" stroke-linejoin="round"/>
<path d="M119.242 11.5149L114.67 10.2368L116.047 12.2323L113.989 16.0831L116.71 16.0501H120.774L119.242 11.5149Z" fill="#F5841F" stroke="#F5841F" stroke-width="0.25" stroke-linecap="round" stroke-linejoin="round"/>
<path d="M104.94 10.2368L100.368 11.5149L98.8436 16.0501H102.899L105.62 16.0831L103.562 12.2323L104.94 10.2368Z" fill="#F5841F" stroke="#F5841F" stroke-width="0.25" stroke-linecap="round" stroke-linejoin="round"/>
<path d="M111.139 12.4469L111.432 7.61475L112.758 4.17627H106.851L108.177 7.61475L108.47 12.4469L108.582 13.9641L108.591 17.7159H111.019L111.027 13.9641L111.139 12.4469Z" fill="#F5841F" stroke="#F5841F" stroke-width="0.25" stroke-linecap="round" stroke-linejoin="round"/>
</g>
<path d="M253.235 4.48692V9.56569H247.971V5.14273C247.971 4.77924 247.663 4.48438 247.284 4.48438H245.501V16.6424C245.501 17.0059 245.809 17.3008 246.188 17.3008H247.971V11.6297H253.238V16.6399C253.232 17.0034 253.535 17.3033 253.914 17.3084H255.707V5.14273C255.707 4.77924 255.399 4.48438 255.02 4.48438H253.235V4.48692ZM263.69 7.66433V13.7573C263.695 14.3115 263.392 14.8275 262.894 15.1122C261.499 15.8849 260.053 14.9165 260.053 13.6455V8.32269C260.053 7.95919 259.746 7.66433 259.367 7.66433H257.584V13.8641C257.59 15.8621 259.276 17.4787 261.361 17.4889H262.374C264.461 17.4838 266.153 15.8621 266.159 13.8616V8.32269C266.159 7.95919 265.851 7.66433 265.472 7.66433H263.69Z" fill="#1B2143"/>
<path d="M290.653 17.3083H292.436V8.67594C292.436 8.31244 292.128 8.01758 291.749 8.01758H289.966V16.6449C289.964 17.0084 290.269 17.3058 290.648 17.3083H290.653Z" fill="#2CA6E0"/>
<path d="M292.473 6.2909C292.764 5.61774 292.431 4.84599 291.728 4.56715C291.026 4.28831 290.221 4.60798 289.93 5.28114C289.639 5.9543 289.972 6.72604 290.675 7.00488C291.377 7.28372 292.182 6.96406 292.473 6.2909Z" fill="#2CA6E0"/>
<path d="M272.529 7.65918C269.943 7.65918 267.827 9.43091 267.827 11.9093V13.2489C267.827 15.7273 269.943 17.4888 272.529 17.4888C275.115 17.4888 277.231 15.7273 277.231 13.2489V11.9093C277.234 9.43091 275.117 7.65918 272.529 7.65918ZM274.751 13.409C274.751 14.5809 273.752 15.3612 272.526 15.3612C271.301 15.3612 270.304 14.5809 270.304 13.409V11.7364C270.304 10.5646 271.304 9.78423 272.526 9.78423C273.749 9.78423 274.751 10.5646 274.751 11.7364V13.409Z" fill="#1B2143"/>
<path d="M283.601 7.65923C282.827 7.65415 282.063 7.82191 281.366 8.14474V5.15543C281.366 4.79193 281.058 4.49707 280.679 4.49707H278.897V13.2489C278.897 15.7273 281.013 17.4889 283.599 17.4889C286.185 17.4889 288.301 15.7273 288.301 13.2489V11.9093C288.304 9.43096 286.193 7.65923 283.601 7.65923ZM285.827 13.4091C285.827 14.5809 284.827 15.3613 283.601 15.3613C282.379 15.3613 281.379 14.5809 281.379 13.4091V11.7365C281.379 10.5647 282.379 9.78428 283.601 9.78428C284.824 9.78428 285.827 10.5647 285.827 11.7365V13.4091Z" fill="#2CA6E0"/>
<path d="M238.038 5.53651C238.038 2.95391 236.726 0.729723 235.726 0.00781516C235.726 0.00781516 235.649 -0.0328557 235.657 0.0713634C235.575 5.06117 232.915 6.41348 231.453 8.2335C228.08 12.4379 231.215 17.0464 234.413 17.8979C236.195 18.3758 233.999 17.054 233.716 14.2655C233.368 10.9 238.038 8.32755 238.038 5.53651Z" fill="#1B2143"/>
<path d="M239.571 7.23717C239.55 7.22446 239.521 7.21429 239.502 7.24734C239.447 7.8752 238.778 9.21733 237.93 10.4527C235.052 14.6367 236.691 16.655 237.614 17.7404C238.15 18.3683 237.614 17.7404 238.951 17.0973C240.603 16.1365 241.674 14.474 241.834 12.6286C242.096 9.65455 240.234 7.78114 239.571 7.23717Z" fill="#2CA6E0"/>
<path d="M38.0342 44.721C35.487 44.721 33.4967 46.6382 33.4967 49.2048C33.4967 51.772 35.4367 53.6722 38.0342 53.6722C40.6317 53.6722 42.6055 51.7386 42.6055 49.1884C42.6048 46.6546 40.6654 44.721 38.0342 44.721ZM38.0507 51.8225C36.6002 51.8225 35.5373 50.7055 35.5373 49.2054C35.5373 47.6883 36.583 46.572 38.0336 46.572C39.5013 46.572 40.5636 47.7054 40.5636 49.2054C40.5642 50.7055 39.5013 51.8225 38.0507 51.8225ZM43.1618 46.6717H44.4271V53.5062H46.4511V44.8883H43.1618V46.6717ZM28.4029 46.5713C29.4658 46.5713 30.3091 47.2213 30.6293 48.1881H32.7717C32.3835 46.1214 30.663 44.721 28.42 44.721C25.8728 44.721 23.8825 46.6382 23.8825 49.2048C23.8825 51.772 25.8225 53.6722 28.42 53.6722C30.6127 53.6722 32.3669 52.2718 32.7552 50.188H30.6299C30.3263 51.1548 29.483 51.8219 28.42 51.8219C26.9523 51.8219 25.9237 50.7049 25.9237 49.2048C25.9231 47.6883 26.9351 46.5713 28.4029 46.5713ZM81.6197 48.3718L80.1354 48.1553C79.427 48.0556 78.921 47.8221 78.921 47.2718C78.921 46.6717 79.5791 46.3719 80.4727 46.3719C81.451 46.3719 82.0754 46.7884 82.2103 47.4719H84.1669C83.9473 45.7383 82.598 44.7217 80.5236 44.7217C78.3812 44.7217 76.9644 45.8052 76.9644 47.3387C76.9644 48.8053 77.8924 49.656 79.7643 49.9223L81.2486 50.1388C81.9742 50.2385 82.379 50.5225 82.379 51.0557C82.379 51.7392 81.6706 52.0226 80.6923 52.0226C79.4944 52.0226 78.8198 51.5392 78.7186 50.8058H76.7283C76.9141 52.4895 78.2463 53.6728 80.6751 53.6728C82.885 53.6728 84.3521 52.6726 84.3521 50.9554C84.3521 49.4219 83.2892 48.6217 81.6197 48.3718ZM45.4385 41.3372C44.6963 41.3372 44.1394 41.8705 44.1394 42.6038C44.1394 43.3371 44.6963 43.871 45.4385 43.871C46.1806 43.871 46.7375 43.3377 46.7375 42.6044C46.7375 41.8711 46.1813 41.3372 45.4385 41.3372ZM75.1421 47.8385C75.1421 45.9718 73.9952 44.7217 71.5663 44.7217C69.2724 44.7217 67.9905 45.8721 67.7372 47.6391H69.7447C69.8459 46.9557 70.3857 46.389 71.5326 46.389C72.5618 46.389 73.0678 46.8389 73.0678 47.3892C73.0678 48.1061 72.1398 48.2891 70.9929 48.4059C69.4411 48.5725 67.5183 49.1057 67.5183 51.1062C67.5183 52.6568 68.6824 53.6564 70.5378 53.6564C71.9883 53.6564 72.8991 53.0563 73.3549 52.1059C73.4223 52.9559 74.0633 53.5062 74.9576 53.5062H76.1382V51.7228H75.1428V47.8385H75.1421ZM73.1518 50.0056C73.1518 51.1561 72.1398 52.0061 70.9082 52.0061C70.1489 52.0061 69.5079 51.6893 69.5079 51.0229C69.5079 50.1729 70.5371 49.9394 71.4817 49.8397C72.3925 49.7564 72.8985 49.5563 73.1518 49.1726V50.0056ZM62.4073 44.721C61.2769 44.721 60.3323 45.188 59.6576 45.9712V41.2539H57.6336V53.5062H59.6239V52.3728C60.2986 53.1894 61.2603 53.6728 62.4073 53.6728C64.8361 53.6728 66.6749 51.7726 66.6749 49.2054C66.6749 46.6382 64.8024 44.721 62.4073 44.721ZM62.1037 51.8225C60.6531 51.8225 59.5902 50.7055 59.5902 49.2054C59.5902 47.7054 60.6697 46.572 62.1202 46.572C63.588 46.572 64.6165 47.689 64.6165 49.2054C64.6172 50.7055 63.5542 51.8225 62.1037 51.8225ZM52.7931 44.721C51.4775 44.721 50.6169 45.2543 50.1109 46.0046V44.8876H48.1035V53.5056H50.1275V48.8217C50.1275 47.5047 50.9708 46.5713 52.219 46.5713C53.3831 46.5713 54.1081 47.3879 54.1081 48.5718V53.5062H56.1321V48.4223C56.1328 46.2552 55.0024 44.721 52.7931 44.721ZM94 48.9221C94 46.4552 92.1784 44.7217 89.7324 44.7217C87.1348 44.7217 85.2286 46.6553 85.2286 49.2054C85.2286 51.8894 87.2698 53.6728 89.7661 53.6728C91.8748 53.6728 93.5277 52.4391 93.9491 50.6891H91.8404C91.5368 51.4558 90.7947 51.8894 89.7992 51.8894C88.5001 51.8894 87.5218 51.0892 87.3029 49.6888H93.9994V48.9221H94ZM87.4219 48.255C87.7427 47.0547 88.6535 46.4716 89.6993 46.4716C90.8462 46.4716 91.7233 47.1216 91.9257 48.255H87.4219Z" fill="#0C5BFF"/>
<path d="M14.7836 49.2931C14.4089 51.2615 12.6669 52.75 10.5729 52.75C8.20531 52.75 6.28647 50.8475 6.28647 48.5C6.28647 46.1525 8.20531 44.25 10.5729 44.25C12.6669 44.25 14.4089 45.7393 14.7836 47.7069H19.1088C18.7055 43.3843 15.0379 40 10.5729 40C5.8377 40 2 43.8059 2 48.5C2 53.195 5.83854 57 10.5729 57C15.0379 57 18.7055 53.6157 19.1088 49.2931H14.7836Z" fill="#0C5BFF"/>
<g clip-path="url(#clip1_583_40)">
<path d="M142.013 42.5789C142.641 51.0721 137.168 55.0864 132.262 55.5145C127.7 55.9125 123.406 53.1166 123.03 48.8208C122.719 45.2718 124.918 43.7608 126.646 43.6102C128.422 43.4549 129.916 44.6772 130.045 46.1572C130.17 47.5802 129.28 48.2278 128.661 48.2817C128.171 48.3245 127.555 48.0281 127.5 47.3915C127.452 46.8445 127.66 46.77 127.609 46.1889C127.519 45.1544 126.615 45.034 126.119 45.0768C125.52 45.1291 124.433 45.8267 124.586 47.5643C124.739 49.317 126.424 50.7019 128.632 50.5093C131.016 50.3016 132.675 48.4506 132.8 45.8544C132.799 45.7169 132.828 45.5808 132.885 45.4557L132.885 45.4525C132.911 45.3981 132.941 45.3459 132.975 45.2963C133.026 45.2202 133.091 45.1362 133.176 45.0443C133.176 45.0419 133.176 45.0419 133.178 45.0419C133.239 44.9729 133.313 44.8984 133.397 44.8183C134.438 43.8385 138.187 41.5277 141.733 42.2594C141.808 42.2755 141.876 42.3152 141.926 42.3728C141.977 42.4304 142.007 42.5027 142.013 42.5789Z" fill="url(#paint0_linear_583_40)"/>
<path d="M150.764 46.297V54.6848C150.764 54.6963 150.759 54.7074 150.751 54.7156C150.743 54.7238 150.732 54.7283 150.72 54.7283H148.929C148.917 54.7283 148.906 54.7238 148.898 54.7156C148.89 54.7074 148.885 54.6963 148.885 54.6848V46.297C148.885 46.2866 148.889 46.2767 148.896 46.2693C148.904 46.262 148.914 46.2578 148.924 46.2578H150.724C150.735 46.2578 150.745 46.262 150.752 46.2693C150.759 46.2767 150.764 46.2866 150.764 46.297Z" fill="#191C1E"/>
<path d="M164.817 43.2773C164.808 43.2773 164.799 43.281 164.792 43.2876C164.786 43.2941 164.782 43.303 164.782 43.3122V44.8163C164.782 44.8267 164.786 44.8366 164.794 44.844C164.801 44.8514 164.811 44.8555 164.821 44.8555H168.413V54.6949C168.413 54.7065 168.417 54.7175 168.426 54.7257C168.434 54.7339 168.445 54.7385 168.457 54.7385H170.322C170.334 54.7385 170.345 54.7339 170.353 54.7257C170.361 54.7175 170.366 54.7065 170.366 54.6949V44.8555H173.669C173.681 44.8555 173.694 44.8504 173.703 44.8414C173.712 44.8324 173.717 44.8203 173.717 44.8075V43.3122C173.717 43.303 173.713 43.2941 173.707 43.2876C173.7 43.281 173.691 43.2773 173.682 43.2773H164.817Z" fill="#191C1E"/>
<path d="M165.465 54.6826C165.465 54.6953 165.46 54.7075 165.451 54.7165C165.442 54.7254 165.43 54.7305 165.417 54.7305H163.669C163.657 54.7305 163.644 54.7254 163.635 54.7165C163.626 54.7075 163.621 54.6953 163.621 54.6826V49.7956C163.619 49.5576 163.601 49.3201 163.564 49.085C163.442 48.2436 163.127 47.6768 162 47.6768H161.952C161.61 47.6893 161.276 47.7835 160.978 47.9515C160.589 48.1554 160.26 48.4557 160.021 48.8234C160.056 49.0952 160.074 49.3689 160.074 49.643V54.7916C160.074 54.8031 160.069 54.8142 160.061 54.8224C160.053 54.8305 160.042 54.8352 160.03 54.8352H158.308C158.296 54.8352 158.283 54.8301 158.275 54.8211C158.265 54.8121 158.26 54.8 158.26 54.7872V50.2969C158.26 49.4991 158.308 48.6446 157.911 48.1695C157.746 47.9915 157.541 47.855 157.314 47.7709C157.086 47.6868 156.841 47.6575 156.6 47.6856C156.265 47.7004 155.936 47.7835 155.635 47.9297C155.43 48.015 155.243 48.1377 155.084 48.2915C154.896 48.4696 154.757 48.6934 154.682 48.9411V54.6826C154.682 54.6953 154.677 54.7075 154.668 54.7165C154.659 54.7254 154.647 54.7305 154.634 54.7305H152.886C152.874 54.7305 152.862 54.7254 152.852 54.7165C152.843 54.7075 152.838 54.6953 152.838 54.6826V46.3559C152.838 46.3443 152.843 46.3332 152.851 46.3251C152.859 46.3169 152.871 46.3123 152.882 46.3123H153.629C153.775 46.3118 153.917 46.3576 154.035 46.4431C154.152 46.5285 154.24 46.6491 154.285 46.7875C154.32 46.9096 154.363 47.0142 154.381 47.0665C155.12 46.4255 156.071 46.0807 157.05 46.0987C157.428 46.0725 157.807 46.127 158.162 46.2585C158.516 46.3901 158.839 46.5957 159.108 46.8616C159.234 47.0114 159.346 47.1719 159.444 47.3411C159.818 46.9455 160.271 46.6333 160.774 46.4252C161.277 46.217 161.818 46.1176 162.363 46.1336C163.289 46.1336 165.443 46.4474 165.443 49.364L165.465 54.6826Z" fill="#191C1E"/>
<path d="M191.094 54.7866H189.176C189.167 54.7871 189.158 54.7854 189.15 54.7816C189.141 54.7778 189.134 54.772 189.128 54.7648C188.726 54.2067 187.87 52.8728 187.778 52.7725L187.739 52.7071C187.438 52.3104 186.725 51.3993 185.773 51.1943L185.052 51.9398V54.7299C185.052 54.7345 185.051 54.7391 185.049 54.7433C185.048 54.7475 185.045 54.7513 185.042 54.7546C185.039 54.7578 185.035 54.7604 185.03 54.7622C185.026 54.7639 185.022 54.7648 185.017 54.7648H183.235C183.223 54.7637 183.211 54.7582 183.203 54.7493C183.195 54.7404 183.191 54.7289 183.191 54.7168V43.1554C183.191 43.1438 183.195 43.1328 183.204 43.1246C183.212 43.1164 183.223 43.1118 183.235 43.1118H185.052C185.061 43.1118 185.07 43.1155 185.077 43.122C185.083 43.1286 185.087 43.1374 185.087 43.1467V49.686L188.582 46.1112H188.613H190.609C190.666 46.1112 190.692 46.1112 190.714 46.1504C190.736 46.1896 190.714 46.2245 190.714 46.2637L187.036 49.9911C187.853 50.4253 188.555 51.0469 189.085 51.8047L189.124 51.857C189.246 52.014 190.618 53.967 191.138 54.695C191.15 54.7008 191.16 54.7112 191.164 54.7239C191.169 54.7366 191.168 54.7505 191.162 54.7626C191.156 54.7748 191.146 54.7841 191.133 54.7886C191.121 54.7931 191.107 54.7924 191.094 54.7866Z" fill="#191C1E"/>
<path d="M150.952 44.0493C150.957 44.2725 150.894 44.4919 150.773 44.6796C150.652 44.8673 150.478 45.0148 150.273 45.1034C150.068 45.192 149.841 45.2177 149.621 45.1771C149.401 45.1366 149.198 45.0317 149.038 44.8757C148.878 44.7197 148.768 44.5198 148.722 44.3013C148.676 44.0829 148.697 43.8558 148.781 43.6489C148.865 43.442 149.008 43.2648 149.194 43.1397C149.379 43.0146 149.597 42.9473 149.821 42.9464C149.968 42.9446 150.113 42.9718 150.25 43.0263C150.386 43.0808 150.51 43.1616 150.616 43.264C150.721 43.3664 150.804 43.4885 150.862 43.6232C150.92 43.758 150.951 43.9028 150.952 44.0493Z" fill="#191C1E"/>
<path d="M177.428 45.9268C174.855 45.9268 173.26 47.6313 173.26 50.3778C173.26 53.1243 174.855 54.8289 177.428 54.8289C180.001 54.8289 181.623 53.1199 181.623 50.3734C181.623 47.627 180.001 45.9268 177.428 45.9268ZM179.093 52.6796C178.869 52.885 178.607 53.0436 178.321 53.1462C178.035 53.2488 177.732 53.2932 177.428 53.2769C175.458 53.2769 175.052 51.6464 175.052 50.2863C175.052 48.3899 175.825 47.4657 177.428 47.4657C179.032 47.4657 179.796 48.4378 179.796 50.3647C179.805 51.4154 179.565 52.1957 179.093 52.6753V52.6796Z" fill="#191C1E"/>
<path d="M199.153 52.1647C199.113 52.1168 199.03 52.1647 198.991 52.1647L197.449 52.3957C197.422 52.3963 197.397 52.4044 197.375 52.4191C197.353 52.4338 197.336 52.4545 197.326 52.4786C197.158 52.7552 196.925 52.9866 196.647 53.153C196.369 53.3194 196.055 53.4156 195.731 53.4333C195.311 53.4926 194.883 53.4347 194.494 53.2662C194.104 53.0978 193.769 52.8252 193.525 52.4786C193.254 52.1288 193.084 51.7109 193.036 51.271V51.2405L197.488 50.6302C197.763 50.5983 198.026 50.5029 198.258 50.3515C198.489 50.2002 198.682 49.997 198.82 49.7583C198.95 49.5119 199.019 49.2388 199.022 48.9609C199.026 48.683 198.965 48.4081 198.842 48.1583C198.428 47.2617 197.683 46.5591 196.763 46.1965C196.114 45.95 195.414 45.8706 194.727 45.9659C194.039 46.0611 193.387 46.3279 192.831 46.7415C192.321 47.147 191.911 47.6625 191.63 48.2493C191.349 48.836 191.205 49.4786 191.21 50.1288C191.188 50.5515 191.211 50.9753 191.28 51.3931C191.59 53.1804 192.896 54.9853 195.181 54.9853C197.907 54.9853 198.952 53.3113 199.144 52.3086C199.17 52.2781 199.201 52.1996 199.153 52.1647ZM193.473 48.3589C193.679 48.1025 193.936 47.8911 194.228 47.7374C194.519 47.5837 194.839 47.4911 195.168 47.4652C195.47 47.406 195.783 47.4202 196.078 47.5067C196.374 47.5932 196.645 47.7494 196.868 47.9621C197.043 48.1265 197.19 48.3179 197.304 48.5289C197.337 48.5969 197.354 48.6714 197.354 48.7468C197.354 48.8223 197.337 48.8968 197.304 48.9648C197.275 49.0346 197.227 49.0955 197.167 49.1413C197.106 49.1872 197.035 49.2165 196.959 49.2264L192.892 49.7931C192.954 49.269 193.162 48.7724 193.49 48.3589H193.473Z" fill="#191C1E"/>
<path d="M207.963 49.4891V54.6812C207.963 54.6939 207.959 54.7061 207.949 54.7152C207.941 54.7241 207.928 54.7292 207.916 54.7292H206.167C206.157 54.7292 206.145 54.7246 206.137 54.7164C206.128 54.7082 206.125 54.6971 206.125 54.6856V50.3653C206.125 50.3653 206.125 49.6503 206.089 49.0008C206.082 48.7832 206.033 48.569 205.944 48.3707C205.853 48.1723 205.724 47.9938 205.565 47.8455C205.4 47.7152 205.209 47.6211 205.005 47.5692C204.801 47.5174 204.588 47.5091 204.381 47.5447C203.555 47.651 202.8 48.0672 202.271 48.7087V54.6812C202.271 54.6939 202.265 54.7061 202.257 54.7152C202.247 54.7241 202.236 54.7292 202.222 54.7292H200.475C200.462 54.7292 200.45 54.7241 200.441 54.7152C200.432 54.7061 200.427 54.6939 200.427 54.6812V46.1976C200.427 46.1849 200.432 46.1727 200.441 46.1637C200.45 46.1547 200.462 46.1497 200.475 46.1497H201.938C201.952 46.1497 201.963 46.1547 201.973 46.1637C201.981 46.1727 201.987 46.1849 201.987 46.1976V47.0259C202.725 46.358 203.677 45.9719 204.673 45.936C205.512 45.8837 207.963 45.9317 207.963 49.4891Z" fill="#191C1E"/>
</g>
<path d="M249.139 46.354H246.749C246.047 46.354 245.435 46.709 245.073 47.2303C245.073 47.2414 245.073 47.2414 245.073 47.2414C244.869 47.5409 244.755 47.8959 244.755 48.273V48.2841C244.755 48.3507 244.755 48.395 244.767 48.4727C244.869 49.4821 245.798 50.2031 246.84 50.2031H249.128C249.592 50.2031 249.978 49.8482 249.978 49.4045V47.1638C249.978 46.7201 249.592 46.354 249.139 46.354ZM246.749 48.983C246.353 48.983 246.024 48.6724 246.024 48.2841C246.024 47.8959 246.353 47.5853 246.749 47.5853C247.146 47.5853 247.474 47.8959 247.474 48.2841C247.474 48.6613 247.157 48.983 246.749 48.983Z" fill="#263B80"/>
<path d="M244.275 39.022H230.172C228.076 39.022 226.377 40.6637 226.377 42.6936V45.3448C227.555 45.3448 227.566 44.4019 227.566 44.1135V42.6936C227.566 41.3071 228.744 40.1756 230.183 40.1756H244.297C245.736 40.1756 246.903 41.296 246.903 42.6825V45.0675H248.069V42.6825C248.069 40.6637 246.37 39.022 244.275 39.022Z" fill="#263B80"/>
<path d="M246.88 51.368V53.6531C246.88 55.0396 245.702 56.1711 244.263 56.1711H240.65C239.608 56.1711 239.438 56.9587 239.347 57.3136H244.275C246.37 57.3136 248.058 55.6719 248.058 53.642V51.3569V51.2349H246.869L246.88 51.368Z" fill="#263B80"/>
<path d="M238.831 42.2388C236.634 42.2388 234.855 43.9581 234.855 46.0879C234.855 46.454 234.912 46.82 235.014 47.1528C234.017 46.576 232.861 46.2432 231.604 46.2432C227.957 46.2432 225 49.094 225 52.6215C225 56.1489 227.957 58.9997 231.604 58.9997C235.252 58.9997 238.208 56.1489 238.208 52.6215C238.208 51.5677 237.948 50.5804 237.483 49.7041C237.914 49.8483 238.367 49.937 238.842 49.937C241.04 49.937 242.818 48.2177 242.818 46.0879C242.818 43.9581 241.029 42.2388 238.831 42.2388ZM231.604 56.3708C229.452 56.3708 227.707 54.6847 227.707 52.6104C227.707 50.5361 229.452 48.85 231.604 48.85C233.756 48.85 235.489 50.5361 235.489 52.6104C235.501 54.6847 233.756 56.3708 231.604 56.3708ZM238.831 48.5172C237.438 48.5172 236.305 47.4301 236.305 46.0768C236.305 44.7346 237.438 43.6364 238.831 43.6364C240.224 43.6364 241.357 44.7235 241.357 46.0768C241.357 47.4301 240.224 48.5172 238.831 48.5172Z" fill="#1DBEF0"/>
<path d="M259.368 50.9688H261.407L262.665 54.829H262.687L263.741 50.9688H265.825L266.969 54.829H266.992L268.158 50.9688H270.084L267.887 57.1252H266.006L264.715 53.032H264.692L263.548 57.1252H261.634L259.368 50.9688Z" fill="#263B80"/>
<path d="M274.128 56.3489H274.105C273.89 56.6817 273.607 56.9146 273.256 57.0588C272.905 57.203 272.531 57.2696 272.146 57.2696C271.851 57.2696 271.579 57.2363 271.319 57.1476C271.047 57.0699 270.809 56.9479 270.617 56.7815C270.413 56.6262 270.254 56.4266 270.129 56.1825C270.005 55.9496 269.948 55.6723 269.948 55.3617C269.948 55.0067 270.016 54.7072 270.141 54.4632C270.277 54.2191 270.447 54.0195 270.673 53.8531C270.9 53.6978 271.16 53.5647 271.443 53.4759C271.738 53.3872 272.033 53.3206 272.338 53.2763C272.644 53.2319 272.961 53.2097 273.267 53.1986C273.573 53.1875 273.856 53.1875 274.128 53.1875C274.128 52.8436 274.004 52.5774 273.766 52.3777C273.528 52.1781 273.233 52.0782 272.905 52.0782C272.588 52.0782 272.304 52.1448 272.044 52.2779C271.783 52.411 271.557 52.5885 271.342 52.8215L270.322 51.7787C270.673 51.446 271.092 51.2019 271.568 51.0355C272.044 50.8692 272.531 50.7915 273.041 50.7915C273.607 50.7915 274.06 50.8581 274.423 51.0023C274.785 51.1465 275.068 51.3461 275.284 51.6124C275.499 51.8786 275.646 52.2114 275.737 52.6107C275.816 52.9989 275.861 53.4537 275.861 53.9751V57.1032H274.105L274.128 56.3489ZM273.664 54.4188C273.516 54.4188 273.347 54.4188 273.12 54.441C272.905 54.4521 272.69 54.4964 272.497 54.5519C272.304 54.6074 272.123 54.6961 271.987 54.8181C271.851 54.9291 271.772 55.1065 271.772 55.3062C271.772 55.5391 271.874 55.7055 272.066 55.8165C272.259 55.9274 272.463 55.9829 272.678 55.9829C272.871 55.9829 273.052 55.9607 273.222 55.9052C273.392 55.8497 273.55 55.7832 273.686 55.6834C273.822 55.5946 273.924 55.4726 274.004 55.3284C274.083 55.1842 274.128 55.0178 274.128 54.8181V54.4077L273.664 54.4188Z" fill="#263B80"/>
<path d="M276.496 49.3384H278.399V57.1254H276.496V49.3384Z" fill="#263B80"/>
<path d="M279.135 49.3384H281.038V57.1254H279.135V49.3384Z" fill="#263B80"/>
<path d="M287.642 56.0606C287.336 56.4489 286.951 56.7484 286.487 56.9591C286.022 57.1699 285.535 57.2808 285.037 57.2808C284.561 57.2808 284.119 57.2032 283.689 57.0479C283.27 56.9037 282.907 56.6818 282.59 56.3934C282.284 56.105 282.035 55.7722 281.865 55.3729C281.684 54.9736 281.593 54.5299 281.593 54.0418C281.593 53.5537 281.684 53.11 281.865 52.7107C282.046 52.3113 282.284 51.9786 282.59 51.6901C282.896 51.4017 283.258 51.191 283.689 51.0357C284.108 50.8804 284.561 50.8027 285.037 50.8027C285.478 50.8027 285.875 50.8804 286.237 51.0357C286.6 51.1799 286.906 51.4017 287.155 51.6901C287.404 51.9786 287.597 52.3113 287.733 52.7107C287.869 53.11 287.937 53.5537 287.937 54.0418V54.6408H283.507C283.587 55.0068 283.745 55.2952 284.006 55.506C284.255 55.7168 284.572 55.8277 284.946 55.8277C285.263 55.8277 285.524 55.7611 285.739 55.6169C285.954 55.4727 286.147 55.2952 286.305 55.0734L287.642 56.0606ZM286.022 53.3429C286.033 53.0213 285.92 52.7439 285.705 52.5221C285.49 52.2891 285.195 52.1782 284.855 52.1782C284.64 52.1782 284.459 52.2115 284.289 52.2781C284.13 52.3446 283.995 52.4333 283.881 52.5332C283.768 52.6441 283.677 52.7661 283.609 52.8992C283.541 53.0434 283.507 53.1876 283.507 53.3319H286.022V53.3429Z" fill="#263B80"/>
<path d="M292.921 52.4888H291.244V54.541C291.244 54.7073 291.256 54.8626 291.267 55.0068C291.29 55.1511 291.324 55.262 291.38 55.3729C291.437 55.4727 291.527 55.5504 291.652 55.6058C291.777 55.6613 291.935 55.6835 292.139 55.6835C292.241 55.6835 292.377 55.6724 292.536 55.6502C292.705 55.628 292.83 55.5837 292.909 55.506V57.0923C292.694 57.1699 292.479 57.2143 292.241 57.2476C292.015 57.2697 291.788 57.2808 291.573 57.2808C291.256 57.2808 290.95 57.2476 290.678 57.181C290.406 57.1144 290.168 57.0035 289.964 56.8593C289.76 56.7151 289.602 56.5154 289.488 56.2825C289.375 56.0496 289.319 55.7611 289.319 55.4173V52.4888H288.095V50.9691H289.319V49.3496H291.222V50.9691H292.898L292.921 52.4888Z" fill="#263B80"/>
<path d="M285.988 44.0914H284.312V46.1435C284.312 46.3099 284.323 46.4652 284.334 46.6094C284.357 46.7536 284.391 46.8645 284.448 46.9754C284.504 47.0753 284.595 47.1529 284.719 47.2084C284.844 47.2639 285.003 47.286 285.207 47.286C285.309 47.286 285.444 47.2749 285.603 47.2528C285.773 47.2306 285.898 47.1862 285.977 47.1086V48.6948C285.762 48.7724 285.546 48.8168 285.309 48.8501C285.082 48.8723 284.855 48.8834 284.64 48.8834C284.323 48.8834 284.017 48.8501 283.745 48.7835C283.473 48.717 283.236 48.6061 283.032 48.4619C282.828 48.3177 282.669 48.118 282.556 47.885C282.443 47.6521 282.386 47.3637 282.386 47.0198V44.0914H281.321V42.5717H282.386V40.9521H284.289V42.5717H285.966L285.988 44.0914Z" fill="#19BEF0"/>
<path d="M255.596 40.6304C255.596 40.3309 255.698 40.0647 255.913 39.8539C256.128 39.6432 256.389 39.5322 256.695 39.5322C257.001 39.5322 257.261 39.6432 257.476 39.8539C257.692 40.0647 257.794 40.3309 257.794 40.6304C257.794 40.9299 257.692 41.1961 257.476 41.4069C257.261 41.6287 257.001 41.7286 256.695 41.7286C256.389 41.7286 256.128 41.6176 255.913 41.4069C255.709 41.2072 255.596 40.941 255.596 40.6304ZM255.743 42.5716H257.646V48.728H255.743V42.5716Z" fill="#19BEF0"/>
<path d="M258.394 42.5718H260.229V43.4148H260.252C260.308 43.2928 260.399 43.1819 260.501 43.0599C260.603 42.9489 260.739 42.838 260.897 42.7382C261.056 42.6494 261.226 42.5718 261.418 42.5052C261.611 42.4498 261.826 42.4165 262.053 42.4165C262.54 42.4165 262.925 42.4942 263.22 42.6384C263.514 42.7826 263.752 42.9822 263.911 43.2485C264.069 43.5036 264.182 43.8142 264.25 44.1802C264.307 44.5352 264.341 44.9234 264.341 45.3339V48.7282H262.438V45.711C262.438 45.5335 262.438 45.356 262.415 45.1564C262.404 44.9678 262.359 44.7903 262.302 44.635C262.234 44.4797 262.143 44.3466 262.008 44.2468C261.872 44.147 261.69 44.0915 261.441 44.0915C261.192 44.0915 260.999 44.1359 260.841 44.2246C260.693 44.3133 260.569 44.4243 260.49 44.5796C260.41 44.7238 260.354 44.9013 260.331 45.0787C260.308 45.2673 260.297 45.4559 260.297 45.6555V48.7171H258.394V42.5718Z" fill="#19BEF0"/>
<path d="M265.723 44.0915H264.466V42.5718H265.723V41.4847C265.723 41.1409 265.746 40.8303 265.814 40.5308C265.87 40.2313 265.984 39.9651 266.153 39.7432C266.323 39.5103 266.573 39.3328 266.89 39.1997C267.207 39.0666 267.626 39 268.147 39C268.34 39 268.532 39.0111 268.713 39.0222C268.906 39.0444 269.087 39.0666 269.257 39.1109L269.167 40.7194C269.065 40.675 268.951 40.6417 268.861 40.6195C268.77 40.5973 268.668 40.5862 268.544 40.5862C268.238 40.5862 268.011 40.6528 267.853 40.7859C267.705 40.919 267.626 41.1852 267.626 41.5957V42.5718H269.042V44.0915H267.626V48.7282H265.723V44.0915ZM269.642 40.6306C269.642 40.3311 269.744 40.0649 269.96 39.8541C270.175 39.6434 270.435 39.5324 270.741 39.5324C271.047 39.5324 271.308 39.6434 271.523 39.8541C271.738 40.0649 271.84 40.3311 271.84 40.6306C271.84 40.9301 271.738 41.1963 271.523 41.4071C271.308 41.629 271.047 41.7288 270.741 41.7288C270.435 41.7288 270.175 41.6179 269.96 41.4071C269.756 41.2074 269.642 40.9412 269.642 40.6306ZM269.79 42.5718H271.693V48.7282H269.79V42.5718Z" fill="#19BEF0"/>
<path d="M272.44 42.5718H274.275V43.4148H274.298C274.355 43.2928 274.445 43.1819 274.547 43.0599C274.649 42.9489 274.785 42.838 274.944 42.7382C275.102 42.6494 275.272 42.5718 275.465 42.5052C275.657 42.4498 275.873 42.4165 276.099 42.4165C276.586 42.4165 276.971 42.4942 277.266 42.6384C277.56 42.7826 277.798 42.9822 277.957 43.2485C278.115 43.5036 278.229 43.8142 278.297 44.1802C278.353 44.5352 278.387 44.9234 278.387 45.3339V48.7282H276.484V45.711C276.484 45.5335 276.484 45.356 276.462 45.1564C276.45 44.9678 276.405 44.7903 276.348 44.635C276.28 44.4797 276.19 44.3466 276.054 44.2468C275.918 44.147 275.737 44.0915 275.487 44.0915C275.238 44.0915 275.046 44.1359 274.887 44.2246C274.74 44.3133 274.615 44.4243 274.536 44.5796C274.457 44.7238 274.4 44.9013 274.377 45.0787C274.355 45.2673 274.343 45.4559 274.343 45.6555V48.7171H272.44V42.5718Z" fill="#19BEF0"/>
<path d="M278.976 40.6304C278.976 40.3309 279.078 40.0647 279.294 39.8539C279.509 39.6432 279.769 39.5322 280.075 39.5322C280.381 39.5322 280.642 39.6432 280.857 39.8539C281.072 40.0647 281.174 40.3309 281.174 40.6304C281.174 40.9299 281.072 41.1961 280.857 41.4069C280.642 41.6287 280.381 41.7286 280.075 41.7286C279.769 41.7286 279.509 41.6176 279.294 41.4069C279.09 41.2072 278.976 40.941 278.976 40.6304Z" fill="#19BEF0"/>
<path d="M281.038 42.5718H279.135V48.7282H281.038V42.5718Z" fill="#19BEF0"/>
<path d="M286.09 45.6555C286.09 45.1675 286.181 44.7238 286.362 44.3244C286.543 43.9251 286.781 43.5923 287.098 43.3039C287.404 43.0155 287.767 42.8047 288.197 42.6494C288.616 42.4942 289.058 42.4165 289.545 42.4165C290.021 42.4165 290.463 42.4942 290.893 42.6494C291.312 42.7937 291.675 43.0155 291.992 43.3039C292.298 43.5923 292.547 43.9251 292.728 44.3244C292.909 44.7238 293 45.1675 293 45.6555C293 46.1436 292.909 46.5873 292.728 46.9867C292.547 47.386 292.309 47.7188 291.992 48.0072C291.686 48.2956 291.324 48.5064 290.893 48.6616C290.463 48.8169 290.021 48.8946 289.545 48.8946C289.069 48.8946 288.628 48.8169 288.197 48.6616C287.778 48.5174 287.415 48.2956 287.098 48.0072C286.792 47.7188 286.543 47.386 286.362 46.9867C286.181 46.5873 286.09 46.1436 286.09 45.6555ZM288.004 45.6555C288.004 46.1214 288.14 46.4986 288.412 46.787C288.684 47.0754 289.058 47.2196 289.545 47.2196C290.032 47.2196 290.406 47.0754 290.666 46.787C290.938 46.4986 291.074 46.1214 291.074 45.6555C291.074 45.1897 290.938 44.8125 290.666 44.5241C290.395 44.2357 290.021 44.0915 289.545 44.0915C289.058 44.0915 288.684 44.2357 288.412 44.5241C288.14 44.8125 288.004 45.1897 288.004 45.6555Z" fill="#19BEF0"/>
<g clip-path="url(#clip2_583_40)">
<path d="M46.7903 81.2397C45.6351 81.2397 44.6725 81.8051 43.9986 82.6697V81.4393H43.1001V92.2802H43.9986V88.3894C44.6725 89.2873 45.6351 89.8194 46.7903 89.8194C48.9081 89.8194 50.6409 87.8906 50.6409 85.5296C50.6088 83.1685 48.9081 81.2397 46.7903 81.2397ZM46.7903 88.9215C45.1538 88.9215 43.8381 87.4251 43.8381 85.5628C43.8381 83.7006 45.1538 82.2041 46.7903 82.2041C48.4268 82.2041 49.7424 83.7006 49.7424 85.5628C49.7104 87.3918 48.3947 88.9215 46.7903 88.9215Z" fill="black"/>
<path d="M36.6505 78.0806C33.6021 78.0806 31.1313 80.7742 31.1313 84.0664C31.1313 87.3585 33.6021 90.0521 36.6505 90.0521C39.6989 90.0521 42.1698 87.3585 42.1698 84.0664C42.1698 80.7742 39.6989 78.0806 36.6505 78.0806ZM36.6505 89.1543C34.0834 89.1543 31.9977 86.8597 31.9977 84.0664C31.9977 81.273 34.0834 78.9785 36.6505 78.9785C39.2176 78.9785 41.3033 81.273 41.3033 84.0664C41.3033 86.893 39.2176 89.1543 36.6505 89.1543Z" fill="black"/>
<path d="M63.3482 81.2734C63.0273 81.2734 62.7385 81.3732 62.4497 81.5395C61.8721 81.872 61.4546 82.3376 61.1979 82.9694C61.1979 82.9694 61.1979 83.0027 61.1658 83.0027C61.1658 82.5038 61.1658 82.005 61.1658 81.5062H60.2674C60.2674 84.1998 60.2674 86.8934 60.2674 89.6202C60.5562 89.6202 60.877 89.6202 61.1658 89.6202C61.1658 89.587 61.1658 89.587 61.1658 89.5537C61.1658 88.0906 61.1658 86.7936 61.1658 85.3637C61.1658 84.7651 61.2625 84.2663 61.4546 83.8007C61.6153 83.3685 61.8721 82.9694 62.225 82.6701C62.6419 82.3043 63.1234 82.138 63.669 82.2378C63.7651 82.2378 63.8291 82.2711 63.9258 82.3043C63.9898 82.0383 64.0859 81.7057 64.15 81.4065C63.9258 81.3067 63.5724 81.2734 63.3482 81.2734Z" fill="black"/>
<path d="M55.2936 81.2734C53.1759 81.2734 51.4432 83.2022 51.4432 85.5632C51.4432 87.9243 53.1759 89.853 55.2936 89.853C56.8017 89.853 58.1176 88.8554 58.7593 87.4255L57.9895 86.9599C57.508 88.1238 56.5129 88.9219 55.3256 88.9219C53.7856 88.9219 52.5342 87.5585 52.3738 85.8625H58.5991H59.1442C59.1442 85.7628 59.1442 85.663 59.1442 85.5632C59.1442 83.0359 57.54 81.2734 55.2936 81.2734ZM55.2936 82.2046C56.8983 82.2046 58.0215 83.3352 58.2137 85.0312H52.3738C52.5983 83.435 53.8177 82.2046 55.2936 82.2046Z" fill="black"/>
<path d="M70.5997 81.4393V82.6697C69.926 81.7718 68.9635 81.2397 67.8083 81.2397C65.6906 81.2397 63.9578 83.1685 63.9578 85.5296C63.9578 87.8906 65.6906 89.8194 67.8083 89.8194C68.9635 89.8194 69.926 89.2541 70.5997 88.3894V89.6198H71.4987V81.4393H70.5997ZM67.8083 88.9215C66.1716 88.9215 64.8562 87.4251 64.8562 85.5628C64.8562 83.7006 66.1716 82.2041 67.8083 82.2041C69.4451 82.2041 70.7604 83.7006 70.7604 85.5628C70.7604 87.3918 69.4451 88.9215 67.8083 88.9215Z" fill="black"/>
<path d="M26.7992 83.3682C26.7992 87.3254 25.1306 90.8837 22.4994 93.3445C19.1942 95.0072 16.1137 93.8433 15.0869 93.1117C18.3278 92.3801 20.7987 88.2898 20.7987 83.3682C20.7987 78.4466 18.3278 74.3563 15.0869 73.6247C16.1137 72.8931 19.1942 71.7292 22.4994 73.3919C25.1306 75.8528 26.7992 79.411 26.7992 83.3682Z" fill="#FF1B2D"/>
<path d="M9.66392 75.8195C8.25198 77.5487 7.32146 80.1425 7.25729 83.0357V83.6675C7.32146 86.5606 8.25198 89.1545 9.66392 90.8837C11.525 93.3777 14.2526 94.9407 17.333 94.9407C19.2263 94.9407 20.9911 94.3421 22.4993 93.3112C20.221 95.4395 17.2047 96.7032 13.8996 96.7032C13.7071 96.7032 13.4824 96.7032 13.2899 96.7032C6.45504 96.4039 1 90.5511 1 83.3682C1 75.9858 6.77593 70 13.8996 70C13.9317 70 13.9317 70 13.9637 70C17.2368 70 20.221 71.2969 22.4993 73.3919C20.9911 72.3611 19.2263 71.7625 17.333 71.7625C14.2526 71.7625 11.4929 73.3587 9.66392 75.8195Z" fill="#FF1B2D"/>
</g>
<path fill-rule="evenodd" clip-rule="evenodd" d="M98 78.7612C98 76.6752 99.624 75 101.635 75H111.827C113.838 75 115.462 76.6752 115.462 78.7454V89.2546C115.462 91.3249 113.838 93 111.827 93H101.635C99.624 93 98 91.3249 98 89.2546V78.7612ZM109.709 78.619L107.249 81.7164C106.894 82.1747 106.894 82.8226 107.265 83.2651L107.559 83.6128C107.822 83.9289 108.316 83.9131 108.564 83.597L111.936 79.2353C112.199 78.8876 111.967 78.3819 111.534 78.3819H110.203C110.018 78.3819 109.832 78.4767 109.709 78.619ZM109.709 89.3178L107.249 86.2204C106.894 85.7621 106.894 85.1141 107.265 84.6716L107.559 84.324C107.822 84.0079 108.316 84.0237 108.564 84.3398L111.936 88.7015C112.199 89.0492 111.967 89.5549 111.534 89.5549H110.203C110.018 89.5549 109.832 89.4601 109.709 89.3178ZM103.769 89.3178L106.228 86.2204C106.584 85.7621 106.584 85.1141 106.213 84.6716L105.919 84.324C105.656 84.0079 105.161 84.0237 104.914 84.3398L101.542 88.7015C101.279 89.0492 101.511 89.5549 101.944 89.5549H103.274C103.46 89.5549 103.645 89.4601 103.769 89.3178ZM103.769 78.619L106.228 81.7164C106.584 82.1747 106.584 82.8226 106.213 83.2651L105.919 83.6128C105.656 83.9289 105.161 83.9131 104.914 83.597L101.542 79.2353C101.279 78.8876 101.511 78.3819 101.944 78.3819H103.274C103.46 78.3819 103.645 78.4767 103.769 78.619Z" fill="black"/>
<path d="M176.82 89.934C176.696 89.934 176.603 89.9024 176.51 89.8233C176.433 89.7443 176.402 89.6495 176.402 89.5231V78.4133C176.402 78.2869 176.433 78.1921 176.51 78.1131C176.603 78.0341 176.696 78.0024 176.82 78.0024H178.861C178.985 78.0024 179.078 78.0341 179.155 78.1131C179.233 78.1921 179.264 78.2869 179.264 78.4133V89.5231C179.264 89.6337 179.233 89.7285 179.155 89.8233C179.078 89.9024 178.985 89.934 178.861 89.934H176.82Z" fill="black"/>
<path fill-rule="evenodd" clip-rule="evenodd" d="M122.979 89.9341C122.871 89.9341 122.778 89.9025 122.685 89.8235C122.608 89.7287 122.577 89.6339 122.577 89.5232V78.6031C122.577 78.4767 122.608 78.3819 122.685 78.3029C122.763 78.2081 122.855 78.1606 122.979 78.1606H127.279C128.888 78.1606 130.14 78.5557 131.037 79.3617C131.935 80.1519 132.399 81.2739 132.445 82.7594C132.46 83.0913 132.46 83.518 132.46 84.0553C132.46 84.5926 132.46 85.0193 132.445 85.3354C132.337 88.4012 130.635 89.9499 127.372 89.9499H122.979V89.9341ZM127.264 87.4056C127.944 87.4056 128.454 87.2318 128.779 86.8999C129.104 86.568 129.274 86.0307 129.305 85.288C129.321 84.9561 129.336 84.5452 129.336 84.0237C129.336 83.5022 129.321 83.0913 129.305 82.7752C129.29 82.0641 129.089 81.5268 128.733 81.1949C128.377 80.8472 127.867 80.6734 127.186 80.6734H125.639V87.4056H127.264Z" fill="black"/>
<path fill-rule="evenodd" clip-rule="evenodd" d="M138.106 90.0921C136.776 90.0921 135.739 89.7286 134.966 89.0017C134.208 88.2589 133.806 87.1843 133.791 85.7936V85.2721C133.837 83.9446 134.239 82.9016 134.997 82.143C135.755 81.3845 136.791 81.021 138.09 81.021C139.034 81.021 139.823 81.2106 140.457 81.6057C141.106 81.985 141.601 82.5223 141.911 83.2019C142.236 83.8814 142.406 84.64 142.406 85.5091V85.9358C142.406 86.0623 142.359 86.1729 142.282 86.2519C142.205 86.3309 142.112 86.3625 141.988 86.3625H136.807V86.4573C136.822 86.9631 136.93 87.3739 137.147 87.69C137.363 87.9903 137.673 88.1483 138.075 88.1483C138.338 88.1483 138.539 88.1009 138.694 87.9903C138.864 87.8796 139.003 87.7374 139.158 87.5636C139.25 87.453 139.328 87.3897 139.39 87.3581C139.452 87.3265 139.56 87.3107 139.684 87.3107H141.818C141.911 87.3107 142.004 87.3423 142.065 87.4055C142.143 87.4688 142.174 87.532 142.174 87.6268C142.174 87.9112 142.004 88.2589 141.679 88.654C141.369 89.0491 140.89 89.381 140.271 89.6654C139.668 89.9499 138.957 90.0921 138.106 90.0921ZM139.405 84.64V84.6084C139.405 84.071 139.297 83.6602 139.065 83.3599C138.833 83.0596 138.508 82.9016 138.106 82.9016C137.688 82.9016 137.363 83.0596 137.147 83.3599C136.93 83.6443 136.822 84.071 136.822 84.6084V84.64H139.405Z" fill="black"/>
<path d="M142.993 89.8236C143.071 89.8868 143.164 89.9184 143.256 89.9184H145.391C145.515 89.9184 145.607 89.9026 145.669 89.8552C145.731 89.8078 145.793 89.7446 145.87 89.6498L147.463 87.4215L149.041 89.6498C149.165 89.8236 149.319 89.9184 149.505 89.9184H151.717C151.825 89.9184 151.918 89.8868 151.98 89.8236C152.057 89.7446 152.088 89.6498 152.088 89.5392C152.088 89.4443 152.057 89.3653 152.011 89.2863L149.258 85.4303L151.779 81.8113C151.841 81.7165 151.872 81.6375 151.872 81.5427C151.872 81.4479 151.841 81.353 151.763 81.2898C151.686 81.2108 151.593 81.1792 151.5 81.1792H149.49C149.397 81.1792 149.319 81.195 149.242 81.2424C149.18 81.274 149.118 81.3214 149.072 81.3846C149.026 81.4479 148.995 81.4795 148.995 81.4795L147.541 83.5497L146.102 81.4795C146.04 81.3846 145.979 81.3214 145.901 81.2582C145.839 81.195 145.731 81.1792 145.607 81.1792H143.504C143.411 81.1792 143.318 81.2108 143.241 81.2898C143.164 81.353 143.133 81.4479 143.133 81.5585C143.133 81.6375 143.164 81.7165 143.225 81.8113L145.685 85.4303L142.978 89.2863C142.916 89.3653 142.885 89.4443 142.885 89.5392C142.885 89.6498 142.916 89.7446 142.993 89.8236Z" fill="black"/>
<path d="M155.645 89.9341C155.491 89.9341 155.367 89.9025 155.29 89.8392C155.212 89.7602 155.15 89.6496 155.104 89.5232L152.753 81.7321L152.722 81.5741C152.722 81.4635 152.753 81.3687 152.83 81.3054C152.908 81.2264 153.001 81.1948 153.093 81.1948H154.872C154.996 81.1948 155.104 81.2264 155.197 81.3054C155.29 81.3687 155.336 81.4477 155.367 81.5425L156.713 86.2045L158.136 81.5741C158.151 81.4793 158.213 81.3845 158.306 81.3054C158.399 81.2264 158.507 81.1948 158.646 81.1948H159.775C159.914 81.1948 160.038 81.2264 160.115 81.3054C160.208 81.3845 160.255 81.4793 160.301 81.5741L161.724 86.2045L163.054 81.5425C163.085 81.4477 163.147 81.3687 163.224 81.3054C163.317 81.2264 163.425 81.1948 163.549 81.1948H165.328C165.436 81.1948 165.529 81.2264 165.591 81.3054C165.668 81.3687 165.699 81.4635 165.699 81.5741C165.699 81.6373 165.699 81.6847 165.684 81.7321L163.317 89.5232C163.24 89.8076 163.07 89.9499 162.791 89.9499H161.244C160.966 89.9499 160.78 89.8076 160.688 89.5232L159.234 85.0508L157.764 89.5232C157.687 89.8076 157.501 89.9499 157.223 89.9499H155.645V89.9341Z" fill="black"/>
<path fill-rule="evenodd" clip-rule="evenodd" d="M167.694 89.7604C168.174 89.9817 168.7 90.0923 169.272 90.0923C169.86 90.0923 170.37 89.9817 170.788 89.7762C171.205 89.555 171.546 89.2705 171.778 88.9228V89.5076C171.778 89.6182 171.808 89.713 171.886 89.8078C171.979 89.8868 172.071 89.9185 172.18 89.9185H174.19C174.314 89.9185 174.407 89.8868 174.484 89.8078C174.562 89.713 174.593 89.6182 174.593 89.5076V84.4031C174.593 83.3601 174.268 82.5383 173.618 81.9378C172.968 81.3214 171.963 81.0054 170.617 81.0054C169.767 81.0054 169.055 81.1476 168.483 81.4163C167.911 81.6849 167.478 82.0168 167.199 82.3961C166.921 82.7595 166.766 83.1072 166.751 83.4075C166.735 83.5023 166.766 83.5971 166.828 83.6761C166.905 83.7393 166.998 83.771 167.106 83.771H168.993C169.055 83.771 169.117 83.7393 169.164 83.6603C169.272 83.5971 169.396 83.5181 169.535 83.3917C169.72 83.2336 169.891 83.123 170.03 83.044C170.184 82.965 170.37 82.9334 170.587 82.9334C170.973 82.9334 171.252 83.0282 171.422 83.2178C171.592 83.4075 171.669 83.7077 171.669 84.1186V84.3241L169.643 84.6401C168.56 84.814 167.71 85.1458 167.091 85.6357C166.488 86.1098 166.178 86.7262 166.178 87.4847C166.178 87.9746 166.302 88.4171 166.565 88.8122C166.859 89.2073 167.23 89.5234 167.694 89.7604ZM171.252 87.627C170.958 87.9588 170.571 88.1169 170.092 88.1169C169.782 88.1169 169.504 88.0379 169.287 87.8798C169.086 87.7218 168.978 87.5163 168.978 87.2635C168.978 86.7736 169.442 86.4259 170.355 86.2521L171.716 86.015V86.2205C171.716 86.821 171.561 87.2951 171.252 87.627Z" fill="black"/>
<path d="M181.243 89.8077C181.336 89.8867 181.429 89.9183 181.553 89.9183H183.594C183.718 89.9183 183.811 89.8867 183.888 89.8077C183.965 89.7129 183.996 89.6181 183.996 89.5074V78.3977C183.996 78.2713 183.965 78.1765 183.888 78.0974C183.811 78.0184 183.718 77.9868 183.594 77.9868H181.553C181.429 77.9868 181.336 78.0184 181.243 78.0974C181.166 78.1765 181.135 78.2713 181.135 78.3977V89.5074C181.135 89.6339 181.166 89.7287 181.243 89.8077Z" fill="black"/>
<path fill-rule="evenodd" clip-rule="evenodd" d="M189.858 90.0921C188.528 90.0921 187.492 89.7286 186.719 89.0017C185.961 88.2589 185.559 87.1843 185.543 85.7936V85.2721C185.589 83.9446 185.992 82.9016 186.75 82.143C187.507 81.3845 188.544 81.021 189.843 81.021C190.786 81.021 191.575 81.2106 192.209 81.6057C192.859 81.985 193.354 82.5223 193.663 83.2019C193.988 83.8814 194.158 84.64 194.158 85.5091V85.9358C194.158 86.0623 194.112 86.1729 194.034 86.2519C193.957 86.3309 193.864 86.3625 193.741 86.3625H188.559V86.4573C188.575 86.9631 188.683 87.3739 188.899 87.69C189.116 87.9903 189.425 88.1483 189.827 88.1483C190.09 88.1483 190.291 88.1009 190.446 87.9903C190.616 87.8796 190.755 87.7374 190.91 87.5636C191.003 87.453 191.08 87.3897 191.142 87.3581C191.204 87.3265 191.312 87.3107 191.436 87.3107H193.57C193.663 87.3107 193.756 87.3423 193.818 87.4055C193.895 87.4688 193.926 87.532 193.926 87.6268C193.926 87.9112 193.756 88.2589 193.431 88.654C193.122 89.0491 192.642 89.381 192.024 89.6654C191.421 89.9499 190.694 90.0921 189.858 90.0921ZM191.142 84.6084C191.142 84.071 191.034 83.6602 190.802 83.3599C190.57 83.0596 190.245 82.9016 189.843 82.9016C189.425 82.9016 189.1 83.0596 188.884 83.3599C188.667 83.6443 188.559 84.071 188.559 84.6084V84.64H191.158V84.6084H191.142Z" fill="black"/>
<path d="M196.587 86.5837C196.587 88.8119 197.747 89.934 200.051 89.934H201.598C201.722 89.934 201.814 89.9024 201.892 89.8233C201.969 89.7285 202 89.6337 202 89.5231V87.9585C202 87.8321 201.969 87.7373 201.892 87.6583C201.814 87.5635 201.722 87.5161 201.598 87.5161H200.314C200.005 87.5161 199.773 87.4212 199.634 87.2158C199.494 87.0103 199.417 86.7101 199.417 86.3308V83.4704H201.459C201.582 83.4704 201.675 83.4388 201.753 83.3598C201.845 83.2808 201.876 83.1859 201.876 83.0595V81.6056C201.876 81.4792 201.83 81.3844 201.753 81.3053C201.675 81.2263 201.582 81.1947 201.459 81.1947H199.417V78.4133C199.417 78.2869 199.386 78.1921 199.309 78.1131C199.231 78.0341 199.139 78.0024 199.015 78.0024H197.004C196.896 78.0024 196.803 78.0341 196.71 78.1131C196.633 78.1921 196.602 78.2869 196.602 78.4133V81.1947H195.318C195.21 81.1947 195.117 81.2263 195.024 81.3053C194.947 81.3844 194.916 81.4792 194.916 81.6056V83.0595C194.916 83.1701 194.947 83.265 195.024 83.3598C195.117 83.4388 195.21 83.4704 195.318 83.4704H196.602V86.5837H196.587Z" fill="black"/>
<path d="M225 84C225 79.05 229.137 75 234.193 75C239.249 75 243.385 79.05 243.385 84C243.385 88.95 239.249 93 234.193 93C229.137 93 225 88.95 225 84Z" fill="#7567CE"/>
<path d="M233.339 79.0498C229.925 79.0498 228.48 80.4641 228.48 82.4569V85.5427C228.48 87.4712 229.925 88.8855 233.339 88.8855H236.688C239.84 88.8855 239.971 88.4998 239.971 87.9212C239.971 87.2141 239.708 86.9569 238.986 86.9569H233.405C231.698 86.9569 230.844 86.1212 230.844 85.2855V84.9641H239.052C239.643 84.9641 240.037 84.5784 240.037 83.9998C240.037 83.4212 239.511 83.0355 238.986 83.0355H230.778V82.7784C230.778 81.9427 231.632 81.1069 233.339 81.1069H238.92C239.643 81.1069 239.905 80.8498 239.905 80.1427C239.905 79.4998 239.774 79.1784 236.622 79.1784H233.339V79.0498Z" fill="white"/>
<path d="M274.969 80.3354C274.575 80.3354 274.443 80.5283 274.443 80.9783V87.1497C274.443 87.5997 274.64 87.7926 274.969 87.7926H275.56C275.954 87.7926 276.085 87.5997 276.085 87.1497V80.9783C276.085 80.5283 275.888 80.3354 275.56 80.3354H274.969Z" fill="#7567CE"/>
<path d="M262.099 87.0213C262.559 87.5999 263.084 87.6642 263.675 87.6642H264.135C264.791 87.6642 264.988 87.1499 264.988 86.8285V80.8499C264.988 80.3999 264.791 80.207 264.463 80.207H263.872C263.478 80.207 263.347 80.3999 263.347 80.8499V85.6713L259.604 80.8499C259.144 80.2713 258.619 80.207 258.028 80.207H257.568C256.912 80.207 256.715 80.7213 256.715 81.0427V87.0213C256.715 87.4713 256.912 87.6642 257.24 87.6642H257.831C258.225 87.6642 258.356 87.4713 258.356 87.0213V82.1999L262.099 87.0213Z" fill="#7567CE"/>
<path d="M283.111 87.0213C283.571 87.5999 284.096 87.6642 284.687 87.6642H285.146C285.803 87.6642 286 87.1499 286 86.8285V80.8499C286 80.3999 285.803 80.207 285.475 80.207H284.884C284.49 80.207 284.358 80.3999 284.358 80.8499V85.6713L280.616 80.8499C280.156 80.2713 279.631 80.207 279.04 80.207H278.58C277.924 80.207 277.727 80.7213 277.727 81.0427V87.0213C277.727 87.4713 277.924 87.6642 278.252 87.6642H278.843C279.237 87.6642 279.368 87.4713 279.368 87.0213V82.1999L283.111 87.0213Z" fill="#7567CE"/>
<path d="M250.543 80.3354C247.982 80.3354 246.865 81.4283 246.865 82.8426V85.1569C246.865 86.6354 247.916 87.664 250.543 87.664H253.038C255.402 87.664 255.467 87.4069 255.467 86.9569C255.467 86.4426 255.27 86.2497 254.745 86.2497H250.543C249.229 86.2497 248.573 85.6069 248.573 84.964V84.7712H254.745C255.205 84.7712 255.467 84.514 255.467 84.064C255.467 83.614 255.139 83.3569 254.745 83.3569H248.573V83.0354C248.573 82.3926 249.229 81.7497 250.543 81.7497H254.745C255.27 81.7497 255.467 81.5569 255.467 81.0426C255.467 80.5926 255.336 80.3354 253.038 80.3354H250.543Z" fill="#7567CE"/>
<path d="M271.292 84.9001V80.9143C271.292 80.4643 271.489 80.2715 271.817 80.2715H272.408C272.802 80.2715 272.933 80.4643 272.933 80.9143V85.0286C272.933 86.5072 271.883 87.6643 270.569 87.6643H268.468C266.104 87.6643 266.039 87.4072 266.039 86.9572C266.039 86.4429 266.236 86.2501 266.761 86.2501H270.175C270.766 86.1858 271.292 85.5429 271.292 84.9001Z" fill="#7567CE"/>
<g clip-path="url(#clip3_583_40)">
<path d="M18.6579 117.386C18.6579 118.381 17.8526 119.189 16.8622 119.189C15.8715 119.189 15.0709 118.381 15.0709 117.386C15.0709 116.392 15.876 115.583 16.862 115.583C17.0977 115.583 17.3312 115.63 17.5492 115.72C17.7671 115.81 17.9651 115.943 18.1319 116.111C18.2987 116.278 18.431 116.477 18.5213 116.696C18.6116 116.915 18.658 117.149 18.6579 117.386Z" fill="black"/>
<path d="M24.5834 109.726C24.3349 110.125 20.983 115.421 20.6572 115.925C20.5849 116.042 20.5079 116.156 20.4401 116.269C20.3948 116.342 20.3451 116.415 20.2999 116.488C19.9516 115.13 18.8207 114.085 17.4186 113.863C17.4819 113.763 19.4496 110.639 19.9471 109.844C20.0013 109.753 20.0557 109.685 20.1777 109.685C21.6253 109.69 23.068 109.69 24.5156 109.69C24.529 109.699 24.5427 109.712 24.5834 109.726Z" fill="#3467FE"/>
<path d="M25.4203 125.07C24.6965 125.933 23.8822 126.541 22.8465 126.787C21.4218 127.123 20.0693 126.968 18.8525 126.087C17.9704 125.447 17.432 124.548 17.0386 123.549C17.0252 123.517 17.0113 123.485 16.9979 123.444C16.9934 123.435 16.9934 123.426 16.9889 123.417C16.832 122.994 16.6827 122.569 16.5412 122.141C16.4008 121.714 16.2651 121.26 16.1747 120.874C16.4008 120.919 16.6314 120.942 16.8712 120.942C17.9252 120.942 18.8704 120.479 19.5174 119.748L19.5264 119.739C19.766 120.334 20.0149 121.264 20.2502 121.987V121.991C20.3136 122.191 20.3767 122.373 20.4401 122.527C20.7024 123.181 20.9785 123.826 21.503 124.312L21.6116 124.407C22.2947 124.975 23.1134 125.124 23.9684 125.152C24.4296 125.174 24.891 125.111 25.4203 125.07Z" fill="#0217FF"/>
<path d="M13.8629 119.285C13.0216 120.465 12.1124 121.587 11.0404 122.581C10.1357 123.422 9.17238 124.171 8.01425 124.625C7.57096 124.797 7.11424 124.893 6.63469 124.888C5.28693 124.893 4.31865 124.044 4.02917 122.627C3.77596 121.369 3.90268 120.125 4.25529 118.912C4.90678 116.664 6.05126 114.675 7.57096 112.909C8.2585 112.11 9.05014 111.424 10.0816 111.092C10.8096 110.861 11.5426 110.793 12.2572 111.161C12.8046 111.442 13.189 111.901 13.4922 112.423C13.9265 113.168 14.1976 113.972 14.4284 114.794C15.0854 114.168 15.9568 113.82 16.862 113.822C17.0519 113.822 17.2327 113.835 17.4139 113.863C17.4273 113.844 17.5043 113.722 17.6266 113.527C17.4636 113.154 17.3279 112.814 17.1741 112.482C16.6901 111.451 16.0341 110.561 15.0842 109.916C13.9625 109.158 12.7095 108.913 11.3662 109.026C9.65171 109.172 8.05499 109.671 6.59842 110.575C4.27813 112.014 2.45507 113.94 1.17962 116.36C0.360887 117.909 -0.109934 119.557 0.0214842 121.333C0.188947 123.621 1.3379 125.261 3.3826 126.26C4.97484 127.041 6.66648 127.109 8.38096 126.896C9.80574 126.719 11.1492 126.251 12.3884 125.529C13.8904 124.657 15.193 123.517 16.4098 122.277C16.4505 122.232 16.4776 122.168 16.5365 122.141C16.3963 121.714 16.2607 121.26 16.17 120.874C15.6981 120.781 15.2502 120.592 14.8535 120.318C14.4569 120.045 14.1196 119.693 13.8629 119.285Z" fill="#0219FA"/>
<path d="M33.3224 119.316H29.8802L29.2019 120.915H27.8854L30.9839 114.003H32.2415L35.3489 120.91H34.0101L33.3226 119.316L33.3224 119.316ZM32.8975 118.308L31.5992 115.288L30.3145 118.308H32.8975ZM36.1045 113.59H37.3348V120.915H36.1045V113.59ZM44.5177 118.277C44.5177 119.916 43.3872 120.978 41.8536 120.978C41.1842 120.978 40.596 120.751 40.1709 120.27V122.827H38.9451V115.643H40.1167V116.333C40.5282 115.829 41.1389 115.584 41.858 115.584C43.3872 115.584 44.5177 116.651 44.5177 118.277ZM43.2694 118.277C43.2694 117.268 42.6 116.628 41.7179 116.628C40.8313 116.628 40.153 117.268 40.153 118.276C40.153 119.284 40.8313 119.925 41.7179 119.925C42.6 119.925 43.2694 119.285 43.2694 118.277ZM50.8596 117.895V120.915H49.6292V118.054C49.6292 117.119 49.168 116.664 48.3808 116.664C47.5077 116.664 46.9153 117.196 46.9153 118.254V120.919H45.6848V113.59H46.9153V116.256C47.3178 115.82 47.9375 115.584 48.6658 115.584C49.9278 115.584 50.8596 116.306 50.8596 117.895ZM56.8169 117.827V120.915H55.6587V120.275C55.3648 120.729 54.7948 120.983 54.0078 120.983C52.8092 120.983 52.0538 120.32 52.0538 119.403C52.0538 118.526 52.6417 117.832 54.2339 117.832H55.5909V117.754C55.5909 117.032 55.1566 116.61 54.2836 116.61C53.6957 116.61 53.085 116.805 52.6914 117.132L52.2121 116.233C52.7729 115.797 53.5872 115.584 54.433 115.584C55.9437 115.584 56.8169 116.306 56.8169 117.827ZM55.5864 119.266V118.653H54.3199C53.483 118.653 53.2569 118.971 53.2569 119.353C53.2569 119.798 53.6324 120.084 54.261 120.084C54.8626 120.084 55.3829 119.807 55.5864 119.266ZM68.3875 114.003L66.1077 120.91H64.7507L63.0499 115.797L61.322 120.91H59.9559L57.6716 114.003H58.997L60.7068 119.253L62.4844 114.003H63.6651L65.4067 119.285L67.1662 114.003H68.3875ZM73.6663 117.827V120.915H72.5082V120.275C72.2142 120.729 71.6442 120.983 70.8573 120.983C69.6586 120.983 68.903 120.32 68.903 119.403C68.903 118.526 69.4912 117.832 71.0834 117.832H72.4404V117.754C72.4404 117.032 72.006 116.61 71.1331 116.61C70.5452 116.61 69.9345 116.805 69.5409 117.132L69.0616 116.233C69.6224 115.797 70.4366 115.584 71.2824 115.584C72.7932 115.584 73.6663 116.306 73.6663 117.827ZM72.4359 119.266V118.653H71.1694C70.3325 118.653 70.1064 118.971 70.1064 119.353C70.1064 119.798 70.4819 120.084 71.1105 120.084C71.7076 120.084 72.2322 119.807 72.4359 119.266ZM75.0504 113.59H76.2808V120.915H75.0504V113.59ZM77.891 113.59H79.1214V120.915H77.891V113.59ZM85.6486 118.671H81.5277C81.677 119.443 82.3148 119.934 83.2285 119.934C83.8166 119.934 84.2825 119.748 84.6535 119.362L85.3139 120.12C84.8433 120.683 84.1061 120.978 83.2014 120.978C81.4417 120.978 80.3022 119.843 80.3022 118.276C80.3022 116.71 81.4509 115.584 83.016 115.584C84.5494 115.584 85.6713 116.66 85.6713 118.308C85.6668 118.408 85.6576 118.554 85.6486 118.671ZM81.5187 117.854H84.4997C84.4001 117.096 83.8211 116.569 83.016 116.569C82.2199 116.573 81.6363 117.087 81.5187 117.854ZM90.0045 120.629C89.7105 120.865 89.2672 120.983 88.8239 120.983C87.675 120.983 87.0145 120.37 87.0145 119.207V116.669H86.1506V115.683H87.0148V114.48H88.245V115.683H89.6516V116.669H88.245V119.175C88.245 119.688 88.5027 119.966 88.9733 119.966C89.231 119.966 89.4752 119.897 89.6606 119.748L90.0045 120.629Z" fill="#050505"/>
</g>
<path fill-rule="evenodd" clip-rule="evenodd" d="M131.524 109C126.264 109 122 113.253 122 118.5C122 123.747 126.264 128 131.524 128C136.784 128 141.048 123.747 141.048 118.5C141.048 113.253 136.784 109 131.524 109Z" fill="#4360DF"/>
<path fill-rule="evenodd" clip-rule="evenodd" d="M131.844 118.084C132.322 118.133 132.8 118.183 133.388 118.15C134.981 118.062 135.946 117.246 135.878 116.027C135.808 114.787 134.524 114.023 133.239 114.094C131.146 114.21 129.607 116.044 129.433 118.139C129.718 118.072 130.017 118.033 130.299 118.017C130.887 117.984 131.365 118.034 131.844 118.084ZM127.74 120.795C127.806 121.932 129.022 122.633 130.239 122.567C132.222 122.461 133.681 120.78 133.845 118.859C133.576 118.92 133.292 118.957 133.025 118.971C132.468 119.001 132.015 118.956 131.562 118.91C131.109 118.865 130.655 118.819 130.098 118.849C128.589 118.93 127.675 119.678 127.74 120.795Z" fill="white"/>
<path d="M146 120.885H149.067C149.067 121.484 149.213 121.914 149.506 122.176C149.799 122.437 150.175 122.568 150.635 122.568C151.014 122.568 151.324 122.487 151.564 122.326C151.81 122.157 151.933 121.884 151.933 121.507C151.933 121.284 151.88 121.104 151.774 120.965C151.674 120.819 151.517 120.693 151.304 120.585C151.091 120.47 150.818 120.354 150.485 120.239C150.152 120.124 149.752 119.978 149.286 119.801C148.867 119.648 148.471 119.49 148.098 119.328C147.731 119.16 147.408 118.952 147.129 118.706C146.849 118.46 146.629 118.16 146.469 117.807C146.316 117.453 146.24 117.015 146.24 116.493C146.24 115.893 146.343 115.375 146.549 114.937C146.756 114.499 147.046 114.137 147.418 113.853C147.791 113.569 148.237 113.357 148.757 113.219C149.276 113.073 149.849 113 150.475 113C151.241 113 151.9 113.1 152.453 113.3C153.006 113.5 153.458 113.772 153.811 114.118C154.164 114.464 154.424 114.871 154.59 115.34C154.764 115.809 154.85 116.312 154.85 116.85H151.764C151.764 116.381 151.657 116.016 151.444 115.755C151.238 115.494 150.921 115.363 150.495 115.363C150.169 115.363 149.889 115.448 149.656 115.617C149.423 115.778 149.306 116.024 149.306 116.355C149.306 116.577 149.36 116.758 149.466 116.896C149.579 117.027 149.742 117.146 149.956 117.254C150.169 117.361 150.432 117.473 150.745 117.588C151.058 117.696 151.417 117.826 151.823 117.98C152.263 118.118 152.673 118.272 153.052 118.441C153.432 118.61 153.765 118.818 154.051 119.063C154.344 119.302 154.574 119.605 154.74 119.974C154.913 120.335 155 120.796 155 121.357C155 122.018 154.88 122.583 154.64 123.052C154.401 123.513 154.078 123.889 153.671 124.182C153.272 124.474 152.806 124.681 152.273 124.804C151.74 124.935 151.181 125 150.595 125C149.137 125 148.004 124.65 147.199 123.951C146.4 123.244 146 122.222 146 120.885Z" fill="black"/>
<path d="M155 116.276V113.939H156.734V111H160.225V113.939H162.743V116.276H160.225V119.817C160.225 120.185 160.262 120.479 160.337 120.7C160.412 120.914 160.516 121.084 160.65 121.211C160.792 121.332 160.96 121.412 161.154 121.452C161.355 121.486 161.579 121.502 161.825 121.502C161.974 121.502 162.165 121.499 162.396 121.492C162.627 121.479 162.828 121.459 163 121.432V123.84C162.739 123.88 162.411 123.916 162.015 123.95C161.627 123.983 161.169 124 160.639 124C160.229 124 159.796 123.973 159.341 123.92C158.886 123.866 158.465 123.726 158.077 123.499C157.689 123.271 157.368 122.923 157.115 122.455C156.861 121.98 156.734 121.332 156.734 120.509V116.276H155Z" fill="black"/>
<path fill-rule="evenodd" clip-rule="evenodd" d="M163.383 116.31C163.128 116.981 163 117.71 163 118.495C163 119.28 163.128 120.008 163.383 120.68C163.646 121.352 164.008 121.932 164.468 122.419C164.936 122.907 165.48 123.293 166.101 123.576C166.73 123.859 167.402 124 168.118 124C168.951 124 169.667 123.83 170.266 123.491C170.865 123.151 171.299 122.741 171.57 122.26V123.735H175V113.265H171.57V114.761C171.27 114.252 170.821 113.831 170.222 113.498C169.63 113.166 168.929 113 168.118 113C167.394 113 166.722 113.141 166.101 113.424C165.48 113.707 164.936 114.092 164.468 114.581C164.008 115.061 163.646 115.638 163.383 116.31ZM166.595 119.534C166.47 119.202 166.408 118.855 166.408 118.495C166.408 118.134 166.47 117.795 166.595 117.476C166.726 117.158 166.901 116.875 167.12 116.628C167.347 116.38 167.617 116.186 167.932 116.044C168.246 115.903 168.596 115.832 168.984 115.832C169.378 115.832 169.732 115.903 170.047 116.044C170.361 116.186 170.627 116.38 170.847 116.628C171.073 116.875 171.249 117.158 171.372 117.476C171.504 117.795 171.57 118.134 171.57 118.495C171.57 118.862 171.504 119.209 171.372 119.534C171.249 119.859 171.073 120.142 170.847 120.383C170.627 120.616 170.357 120.807 170.036 120.956C169.722 121.097 169.371 121.168 168.984 121.168C168.596 121.168 168.246 121.097 167.932 120.956C167.617 120.807 167.347 120.616 167.12 120.383C166.901 120.142 166.726 119.859 166.595 119.534Z" fill="black"/>
<path d="M177 116.276V113.939H178.517V111H181.572V113.939H183.775V116.276H181.572V119.817C181.572 120.185 181.605 120.479 181.67 120.7C181.735 120.914 181.826 121.084 181.944 121.211C182.068 121.332 182.215 121.412 182.385 121.452C182.561 121.486 182.757 121.502 182.972 121.502C183.103 121.502 183.269 121.499 183.471 121.492C183.674 121.479 183.85 121.459 184 121.432V123.84C183.772 123.88 183.485 123.916 183.139 123.95C182.799 123.983 182.397 124 181.934 124C181.575 124 181.197 123.973 180.798 123.92C180.4 123.866 180.031 123.726 179.692 123.499C179.353 123.271 179.072 122.923 178.851 122.455C178.629 121.98 178.517 121.332 178.517 120.509V116.276H177Z" fill="black"/>
<path d="M185 120.211V115H188.459V119.5C188.459 120.128 188.6 120.641 188.882 121.039C189.164 121.43 189.667 121.625 190.395 121.625C191.121 121.625 191.655 121.427 191.996 121.03C192.345 120.626 192.519 120.084 192.519 119.402V115H196V123.778H192.519V122.524C192.214 122.986 191.751 123.348 191.128 123.609C190.505 123.87 189.76 124 188.893 124C188.136 124 187.513 123.905 187.024 123.715C186.542 123.526 186.149 123.286 185.845 122.995C185.496 122.657 185.267 122.266 185.155 121.821C185.051 121.376 185 120.84 185 120.211Z" fill="black"/>
<path d="M198 120.885H201.067C201.067 121.484 201.213 121.914 201.507 122.176C201.798 122.437 202.175 122.568 202.635 122.568C203.014 122.568 203.324 122.487 203.564 122.326C203.811 122.157 203.933 121.884 203.933 121.507C203.933 121.284 203.88 121.104 203.773 120.965C203.674 120.819 203.517 120.693 203.304 120.585C203.091 120.47 202.818 120.354 202.485 120.239C202.152 120.124 201.752 119.978 201.287 119.801C200.867 119.648 200.47 119.49 200.097 119.328C199.731 119.16 199.408 118.952 199.129 118.706C198.849 118.46 198.63 118.16 198.469 117.807C198.316 117.453 198.24 117.015 198.24 116.493C198.24 115.893 198.343 115.375 198.549 114.937C198.756 114.499 199.045 114.137 199.418 113.853C199.792 113.569 200.237 113.357 200.757 113.219C201.276 113.073 201.848 113 202.475 113C203.24 113 203.899 113.1 204.452 113.3C205.006 113.5 205.459 113.772 205.812 114.118C206.165 114.464 206.423 114.871 206.59 115.34C206.764 115.809 206.85 116.312 206.85 116.85H203.763C203.763 116.381 203.658 116.016 203.443 115.755C203.238 115.494 202.921 115.363 202.495 115.363C202.168 115.363 201.889 115.448 201.656 115.617C201.423 115.778 201.306 116.024 201.306 116.355C201.306 116.577 201.359 116.758 201.466 116.896C201.579 117.027 201.743 117.146 201.956 117.254C202.168 117.361 202.432 117.473 202.744 117.588C203.058 117.696 203.417 117.826 203.823 117.98C204.263 118.118 204.672 118.272 205.052 118.441C205.432 118.61 205.764 118.818 206.05 119.063C206.344 119.302 206.573 119.605 206.74 119.974C206.913 120.335 207 120.796 207 121.357C207 122.018 206.88 122.583 206.64 123.052C206.401 123.513 206.077 123.889 205.671 124.182C205.272 124.474 204.805 124.681 204.273 124.804C203.74 124.935 203.181 125 202.595 125C201.137 125 200.005 124.65 199.199 123.951C198.399 123.244 198 122.222 198 120.885Z" fill="black"/>
<g clip-path="url(#clip4_583_40)">
<path d="M271.399 125.211C268.356 125.211 266.192 123.476 266.226 120.68C266.294 118.269 267.815 116.277 271.432 116.277H274.576V114.702C274.576 113.481 274.171 112.452 272.413 112.452C270.587 112.452 270.181 113.288 270.046 114.541H266.733C266.868 111.97 268.119 109.817 272.514 109.817C276.165 109.817 278.059 111.231 278.059 114.799V125.019H274.745V124.183H274.61C273.934 124.601 273.224 125.211 271.399 125.211ZM274.576 119.973V118.462H271.906C270.046 118.462 269.539 119.298 269.539 120.519C269.539 122.03 270.52 122.737 271.939 122.737C273.765 122.705 274.576 121.548 274.576 119.973ZM237.658 124.087H237.523V130H234.007V110.01H237.456V110.942H237.591C238.774 109.849 240.329 109.817 241.174 109.817C244.758 109.817 247.125 113.063 247.125 117.402V117.98C247.125 122.512 244.386 125.179 241.141 125.179C239.552 125.147 238.436 124.826 237.658 124.087ZM243.845 118.205V117.209C243.845 114.381 242.73 112.485 240.701 112.485C238.504 112.485 237.354 114.67 237.354 117.209V118.173C237.354 120.583 238.504 122.415 240.769 122.415C242.527 122.447 243.845 121.13 243.845 118.205ZM248.849 109.881H252.365V124.954H248.849V109.881ZM254.833 104H258.349V124.954H254.833V104ZM260.817 104H264.333V124.954H260.817V104ZM287.964 113.159C285.97 113.159 284.043 114.638 284.043 116.534V124.986H280.527V109.978H283.772V110.91H283.907C284.685 110.106 286.612 109.753 288.201 109.785H288.37V113.159H287.964Z" fill="black"/>
<path d="M248.849 104H252.365V107.6H248.849V104Z" fill="#FF0005"/>
<path d="M286.477 121.387H289.993V124.986H286.477V121.387Z" fill="#00BFFF"/>
</g>
<g clip-path="url(#clip5_583_40)">
<path d="M28 7.74974L15 0L2 7.74974V23.2503L15 31L28 23.2503V7.74974Z" fill="url(#paint1_linear_583_40)"/>
<path d="M21.0663 12.0318H9.03394L10.2372 6.85498H19.8631L21.0663 12.0318Z" fill="white"/>
<path d="M5.72504 16.2769L9.03395 13.6885L11.8415 15.6557V19.0724L14.0474 21.1431V22.282L12.042 24.1457H10.0366L5.72504 16.2769Z" fill="white"/>
<path d="M24.275 16.2769L20.9661 13.6885L18.1585 15.6557V19.0724L15.9526 21.1431V22.282L17.958 24.1457H19.9634L24.275 16.2769Z" fill="white"/>
<path d="M11.9418 12.7563H18.1585L17.2561 15.5518L17.5569 18.9686H12.6437L12.9946 15.5001L11.9418 12.7563Z" fill="white"/>
</g>
<path d="M38.632 11.368C39.368 10.776 40.34 10.48 41.548 10.48C42.756 10.48 43.724 10.78 44.452 11.38C45.188 11.972 45.556 12.808 45.556 13.888V15.76C45.556 16.856 45.192 17.692 44.464 18.268C43.744 18.836 42.772 19.12 41.548 19.12C40.324 19.12 39.348 18.836 38.62 18.268C37.9 17.692 37.54 16.856 37.54 15.76V13.888C37.54 12.8 37.904 11.96 38.632 11.368ZM40.9 16.54C41.06 16.7 41.276 16.78 41.548 16.78C41.82 16.78 42.036 16.7 42.196 16.54C42.356 16.38 42.436 16.136 42.436 15.808V13.792C42.436 13.472 42.356 13.232 42.196 13.072C42.036 12.904 41.82 12.82 41.548 12.82C41.276 12.82 41.06 12.904 40.9 13.072C40.74 13.232 40.66 13.472 40.66 13.792V15.808C40.66 16.136 40.74 16.38 40.9 16.54ZM53.7618 15.364V18.676C53.7618 18.764 53.7298 18.84 53.6658 18.904C53.6018 18.968 53.5258 19 53.4378 19H51.1458C51.0578 19 50.9818 18.968 50.9178 18.904C50.8538 18.84 50.8218 18.764 50.8218 18.676V15.448C50.8218 15.008 50.6218 14.788 50.2218 14.788C49.8218 14.788 49.6217 15.008 49.6217 15.448V18.676C49.6217 18.764 49.5898 18.84 49.5258 18.904C49.4618 18.968 49.3858 19 49.2978 19H47.0178C46.9298 19 46.8538 18.968 46.7898 18.904C46.7258 18.84 46.6938 18.764 46.6938 18.676V13.084C46.6938 12.996 46.7258 12.92 46.7898 12.856C46.8538 12.792 46.9298 12.76 47.0178 12.76H49.1178C49.2058 12.76 49.2818 12.792 49.3458 12.856C49.4098 12.92 49.4418 12.996 49.4418 13.084V13.48C49.6498 13.232 49.9298 13.032 50.2818 12.88C50.6418 12.72 51.0258 12.64 51.4338 12.64C52.0898 12.64 52.6418 12.872 53.0898 13.336C53.5378 13.792 53.7618 14.468 53.7618 15.364ZM57.6569 15.46V16.3C57.6569 16.572 57.6929 16.768 57.7649 16.888C57.8369 17.008 57.9489 17.068 58.1009 17.068C58.2529 17.068 58.3569 17.044 58.4129 16.996C58.4689 16.94 58.5249 16.84 58.5809 16.696C58.6449 16.544 58.7609 16.468 58.9289 16.468H61.2689C61.3569 16.468 61.4329 16.5 61.4969 16.564C61.5609 16.628 61.5929 16.712 61.5929 16.816C61.5929 16.92 61.5569 17.06 61.4849 17.236C61.4129 17.412 61.2889 17.612 61.1129 17.836C60.9369 18.06 60.7209 18.268 60.4649 18.46C60.2089 18.644 59.8729 18.8 59.4569 18.928C59.0409 19.056 58.5809 19.12 58.0769 19.12C57.0769 19.12 56.2649 18.86 55.6409 18.34C55.0249 17.812 54.7169 17.084 54.7169 16.156V15.604C54.7169 14.676 55.0249 13.952 55.6409 13.432C56.2649 12.904 57.0769 12.64 58.0769 12.64C58.6689 12.64 59.2049 12.732 59.6849 12.916C60.1649 13.092 60.5329 13.312 60.7889 13.576C61.0529 13.832 61.2529 14.084 61.3889 14.332C61.5249 14.58 61.5929 14.772 61.5929 14.908C61.5929 15.036 61.5609 15.132 61.4969 15.196C61.4329 15.26 61.3569 15.292 61.2689 15.292H58.9289C58.7769 15.292 58.6609 15.212 58.5809 15.052C58.4689 14.812 58.3209 14.692 58.1369 14.692C57.8169 14.692 57.6569 14.948 57.6569 15.46ZM65.5372 15.448V18.676C65.5372 18.764 65.5052 18.84 65.4412 18.904C65.3772 18.968 65.3012 19 65.2132 19H62.8732C62.7852 19 62.7092 18.968 62.6452 18.904C62.5812 18.84 62.5492 18.764 62.5492 18.676V10.804C62.5492 10.716 62.5812 10.64 62.6452 10.576C62.7092 10.512 62.7852 10.48 62.8732 10.48H65.2132C65.3012 10.48 65.3772 10.512 65.4412 10.576C65.5052 10.64 65.5372 10.716 65.5372 10.804V13.384C65.9932 12.888 66.5772 12.64 67.2892 12.64C68.0012 12.64 68.5892 12.872 69.0532 13.336C69.5172 13.8 69.7492 14.476 69.7492 15.364V18.664C69.7492 18.752 69.7172 18.828 69.6532 18.892C69.5892 18.956 69.5132 18.988 69.4252 18.988H67.0732C66.9852 18.988 66.9092 18.956 66.8452 18.892C66.7812 18.828 66.7492 18.752 66.7492 18.664V15.448C66.7492 15.008 66.5452 14.788 66.1372 14.788C65.7372 14.788 65.5372 15.008 65.5372 15.448ZM70.713 17.212C70.713 16.132 71.589 15.44 73.341 15.136L74.613 14.932C74.613 14.692 74.593 14.532 74.553 14.452C74.513 14.364 74.417 14.32 74.265 14.32C74.121 14.32 73.977 14.384 73.833 14.512C73.689 14.64 73.553 14.704 73.425 14.704H71.385C71.209 14.704 71.121 14.62 71.121 14.452C71.121 14.276 71.181 14.092 71.301 13.9C71.429 13.7 71.609 13.504 71.841 13.312C72.081 13.12 72.413 12.96 72.837 12.832C73.269 12.704 73.749 12.64 74.277 12.64C75.349 12.64 76.153 12.864 76.689 13.312C77.225 13.76 77.493 14.4 77.493 15.232V18.676C77.493 18.764 77.461 18.84 77.397 18.904C77.333 18.968 77.257 19 77.169 19H75.069C74.981 19 74.905 18.968 74.841 18.904C74.777 18.84 74.745 18.764 74.745 18.676V18.34C74.369 18.86 73.821 19.12 73.101 19.12C72.381 19.12 71.801 18.94 71.361 18.58C70.929 18.212 70.713 17.756 70.713 17.212ZM73.869 17.344C74.389 17.344 74.649 17.032 74.649 16.408L73.941 16.564C73.589 16.644 73.413 16.792 73.413 17.008C73.413 17.104 73.453 17.184 73.533 17.248C73.613 17.312 73.725 17.344 73.869 17.344ZM81.0993 19H78.9513C78.8633 19 78.7873 18.968 78.7233 18.904C78.6593 18.84 78.6273 18.764 78.6273 18.676V13.084C78.6273 12.996 78.6593 12.92 78.7233 12.856C78.7873 12.792 78.8633 12.76 78.9513 12.76H81.0993C81.1873 12.76 81.2633 12.792 81.3273 12.856C81.3913 12.92 81.4233 12.996 81.4233 13.084V18.676C81.4233 18.764 81.3913 18.84 81.3273 18.904C81.2633 18.968 81.1873 19 81.0993 19ZM81.3633 10.444V11.896C81.3633 11.984 81.3313 12.06 81.2673 12.124C81.2033 12.188 81.1273 12.22 81.0393 12.22H79.0113C78.9233 12.22 78.8473 12.188 78.7833 12.124C78.7193 12.06 78.6873 11.984 78.6873 11.896V10.444C78.6873 10.356 78.7193 10.28 78.7833 10.216C78.8473 10.152 78.9233 10.12 79.0113 10.12H81.0393C81.1273 10.12 81.2033 10.152 81.2673 10.216C81.3313 10.28 81.3633 10.356 81.3633 10.444ZM89.6914 15.364V18.676C89.6914 18.764 89.6594 18.84 89.5954 18.904C89.5314 18.968 89.4554 19 89.3674 19H87.0754C86.9874 19 86.9114 18.968 86.8474 18.904C86.7834 18.84 86.7514 18.764 86.7514 18.676V15.448C86.7514 15.008 86.5514 14.788 86.1514 14.788C85.7514 14.788 85.5514 15.008 85.5514 15.448V18.676C85.5514 18.764 85.5194 18.84 85.4554 18.904C85.3914 18.968 85.3154 19 85.2274 19H82.9474C82.8594 19 82.7834 18.968 82.7194 18.904C82.6554 18.84 82.6234 18.764 82.6234 18.676V13.084C82.6234 12.996 82.6554 12.92 82.7194 12.856C82.7834 12.792 82.8594 12.76 82.9474 12.76H85.0474C85.1354 12.76 85.2114 12.792 85.2754 12.856C85.3394 12.92 85.3714 12.996 85.3714 13.084V13.48C85.5794 13.232 85.8594 13.032 86.2114 12.88C86.5714 12.72 86.9554 12.64 87.3634 12.64C88.0194 12.64 88.5714 12.872 89.0194 13.336C89.4674 13.792 89.6914 14.468 89.6914 15.364Z" fill="black"/>
<defs>
<linearGradient id="paint0_linear_583_40" x1="141.529" y1="42.4943" x2="129.232" y2="59.9441" gradientUnits="userSpaceOnUse">
<stop stop-color="#11C4D1"/>
<stop offset="1" stop-color="#0062AD"/>
</linearGradient>
<linearGradient id="paint1_linear_583_40" x1="14.9998" y1="0.0530834" x2="14.9998" y2="33.5625" gradientUnits="userSpaceOnUse">
<stop stop-color="#002D74"/>
<stop offset="0.9989" stop-color="#000938"/>
</linearGradient>
<clipPath id="clip0_583_40">
<rect width="114" height="21" fill="white" transform="translate(98 1)"/>
</clipPath>
<clipPath id="clip1_583_40">
<rect width="85" height="14" fill="white" transform="translate(123 42)"/>
</clipPath>
<clipPath id="clip2_583_40">
<rect width="71" height="27" fill="white" transform="translate(1 70)"/>
</clipPath>
<clipPath id="clip3_583_40">
<rect width="90" height="18" fill="white" transform="translate(0 109)"/>
</clipPath>
<clipPath id="clip4_583_40">
<rect width="56" height="26" fill="white" transform="translate(234 104)"/>
</clipPath>
<clipPath id="clip5_583_40">
<rect width="26" height="31" fill="white" transform="translate(2)"/>
</clipPath>
</defs>
</svg>
