<svg width="117" height="28" viewBox="0 0 117 28" fill="none" xmlns="http://www.w3.org/2000/svg">
<g clip-path="url(#clip0_388_748)">
<path d="M14.1659 27.905C21.8652 27.905 28.1067 21.6794 28.1067 13.9999C28.1067 6.32026 21.8652 0.0947266 14.1659 0.0947266C6.46652 0.0947266 0.224976 6.32026 0.224976 13.9999C0.224976 21.6794 6.46652 27.905 14.1659 27.905Z" fill="#007896"/>
<path d="M15.6182 17.501C15.2424 17.8821 14.729 18.0967 14.1931 18.0967C13.6572 18.0967 13.1438 17.8821 12.7681 17.501L10.9515 15.6694C10.7177 15.4322 10.3982 15.2986 10.0647 15.2986C9.73118 15.2986 9.41165 15.4322 9.17786 15.6694C8.39095 16.468 8.39095 17.7483 9.17786 18.5469L12.7739 22.1673C13.1496 22.5484 13.663 22.763 14.1989 22.763C14.7348 22.763 15.2482 22.5484 15.624 22.1673L19.2107 18.5423C19.9976 17.7437 19.9976 16.4634 19.2107 15.6648C18.9769 15.4276 18.6574 15.2939 18.3239 15.2939C17.9904 15.2939 17.6708 15.4276 17.4371 15.6648L15.6182 17.501Z" fill="white"/>
<path d="M8.80202 11.1258C9.16036 10.7544 9.65324 10.5422 10.17 10.5368C10.6867 10.5313 11.184 10.7331 11.5501 11.0969L13.2831 12.8428C13.5107 13.069 13.8198 13.1946 14.1411 13.1913C14.4624 13.1881 14.7689 13.0563 14.9918 12.8255C15.7595 12.0623 15.7709 10.8257 15.0173 10.0486L11.593 6.59491C11.2269 6.23116 10.7296 6.02934 10.2129 6.03478C9.69616 6.04021 9.20328 6.25246 8.84494 6.62384L5.3545 10.1516C4.58679 10.9148 4.57542 12.1514 5.32898 12.9285C5.55657 13.1547 5.8657 13.2802 6.18697 13.2769C6.50824 13.2737 6.81474 13.1419 7.03766 12.9111L8.80202 11.1258Z" fill="white"/>
<path d="M16.7898 11.0472C17.1481 10.6758 17.641 10.4636 18.1577 10.4581C18.6745 10.4527 19.1717 10.6545 19.5378 11.0183L21.2709 12.7665C21.4985 12.9927 21.8076 13.1183 22.1289 13.115C22.4501 13.1118 22.7566 12.98 22.9795 12.7492C23.7473 11.986 23.7586 10.7494 23.0051 9.97233L19.5784 6.5163C19.2123 6.15254 18.7151 5.95072 18.1983 5.95616C17.6816 5.9616 17.1887 6.17384 16.8304 6.54522L13.3399 10.073C12.5722 10.8362 12.5609 12.0727 13.3144 12.8499C13.542 13.076 13.8511 13.2016 14.1724 13.1983C14.4937 13.1951 14.8002 13.0633 15.0231 12.8325L16.7898 11.0472Z" fill="white"/>
<path d="M47.0391 9.5278L43.1751 14.488C43.152 14.5177 43.1165 14.5351 43.0788 14.5354H42.6067C42.5692 14.5354 42.5338 14.5184 42.5104 14.4891L38.6465 9.5683C38.6141 9.5276 38.5595 9.5117 38.5102 9.5286C38.4609 9.5455 38.4277 9.59154 38.4272 9.6435V18.8719C38.4272 18.9397 38.3722 18.9946 38.3043 18.9946H36.7313C36.6634 18.9946 36.6084 18.9397 36.6084 18.8719L36.6304 6.00235C36.631 5.93506 36.6859 5.88086 36.7534 5.88086H37.8855C37.9232 5.88112 37.9587 5.8986 37.9818 5.9283L42.7564 12.0513C42.7797 12.081 42.8154 12.0984 42.8532 12.0984C42.8911 12.0984 42.9268 12.081 42.9501 12.0513L47.7061 5.9283C47.7294 5.89828 47.7654 5.88076 47.8035 5.88086H48.9357C49.0036 5.88086 49.0586 5.93577 49.0586 6.0035V18.8719C49.0586 18.9397 49.0036 18.9946 48.9357 18.9946H47.3813C47.3134 18.9946 47.2583 18.9397 47.2583 18.8719V9.60301C47.2579 9.55104 47.2246 9.505 47.1754 9.4881C47.1261 9.4712 47.0715 9.48711 47.0391 9.5278Z" fill="#007896"/>
<path d="M54.2914 22.4033H52.6952C52.6533 22.4058 52.6134 22.3854 52.5908 22.3501C52.5681 22.3149 52.5664 22.2702 52.5862 22.2332L54.303 18.518C54.318 18.4866 54.318 18.45 54.303 18.4185L50.4588 9.98266C50.4396 9.94582 50.4416 9.90155 50.4641 9.86664C50.4867 9.83173 50.5262 9.81154 50.5678 9.81373H52.273C52.3238 9.81037 52.3708 9.8404 52.389 9.88778L55.0094 16.2607C55.1094 16.4584 55.1689 16.6739 55.1846 16.8947H55.2728C55.2836 16.6795 55.3275 16.4673 55.4027 16.2653V16.256L58.022 9.89241C58.0402 9.84503 58.0872 9.815 58.138 9.81836H59.7144C59.7558 9.81597 59.7954 9.83584 59.8181 9.87046C59.8409 9.90509 59.8433 9.9492 59.8246 9.98613L54.397 22.3304C54.3797 22.3737 54.3381 22.4024 54.2914 22.4033Z" fill="#007896"/>
<path d="M72.341 17.5552C72.3792 17.6025 72.3741 17.6713 72.3294 17.7125L72.2285 17.8132C72.0651 17.958 71.8931 18.0928 71.7135 18.217C71.4416 18.4147 71.1519 18.5867 70.8481 18.7307C70.4541 18.9049 70.0427 19.0368 69.6208 19.1241C69.0959 19.2421 68.5593 19.3007 68.0212 19.2988C66.0786 19.2988 64.4932 18.6432 63.2652 17.3319C62.0371 16.0206 61.4235 14.3957 61.4243 12.4573C61.4243 10.5051 62.034 8.87326 63.2536 7.56197C64.4731 6.25067 66.0619 5.59503 68.02 5.59503C68.8429 5.58727 69.6603 5.73001 70.4317 6.01618C71.1625 6.2931 71.6736 6.57001 71.9652 6.84693L72.3248 7.18825C72.3716 7.22913 72.3778 7.29959 72.3387 7.34792L71.442 8.54081C71.4221 8.57067 71.3894 8.58963 71.3535 8.59212C71.3176 8.59461 71.2826 8.58036 71.2587 8.55354L71.2089 8.50841C71.1431 8.44979 71.0008 8.34412 70.782 8.19139C70.5641 8.03921 70.3371 7.9005 70.1022 7.77602C69.8129 7.63192 69.5077 7.52202 69.1928 7.44858C68.8167 7.35334 68.4301 7.30553 68.0421 7.30627C66.6539 7.30627 65.5144 7.80186 64.6235 8.79304C63.7327 9.78423 63.2872 11.0084 63.2872 12.4654C63.2872 13.9079 63.7327 15.1247 64.6235 16.1159C65.5144 17.107 66.6539 17.6026 68.0421 17.6026C68.6429 17.605 69.2384 17.4898 69.7948 17.2636C70.347 17.0392 70.7472 16.8182 70.9954 16.6006L71.0035 16.5937L71.2518 16.3461C71.2757 16.3197 71.3104 16.3058 71.3459 16.3083C71.3815 16.3107 71.4139 16.3294 71.4339 16.3588L72.341 17.5552Z" fill="#007896"/>
<path d="M78.9611 11.1358C78.9611 11.1997 78.9092 11.2515 78.8451 11.2515H77.9937C77.3595 11.2417 76.7506 11.4997 76.3175 11.9619C75.8537 12.4377 75.6027 13.0804 75.6215 13.7437V18.8682C75.6215 18.9321 75.5695 18.9839 75.5055 18.9839H73.9464C73.8824 18.9839 73.8304 18.9321 73.8304 18.8682V9.93478C73.8304 9.87088 73.8824 9.81908 73.9464 9.81908H75.0589C75.1229 9.81908 75.1749 9.87088 75.1749 9.93478L75.2224 11.3695H75.3315C75.5424 10.8841 75.9033 10.4787 76.3616 10.2125C76.8547 9.92862 77.4164 9.78496 77.9856 9.7971H78.837C78.9011 9.7971 78.953 9.8489 78.953 9.9128L78.9611 11.1358Z" fill="#007896"/>
<path d="M83.7183 22.4034H82.121C82.0785 22.4065 82.0377 22.3862 82.0147 22.3505C81.9917 22.3147 81.9902 22.2693 82.0108 22.2321L83.7276 18.5192C83.743 18.4874 83.743 18.4504 83.7276 18.4186L79.8845 9.98385C79.8645 9.94674 79.8664 9.90176 79.8893 9.8664C79.9122 9.83103 79.9526 9.81088 79.9947 9.81377H81.6976C81.7486 9.81058 81.7958 9.84113 81.8136 9.88897L84.434 16.2619C84.55 16.5245 84.7136 16.7351 84.7136 16.8959H84.5976C84.5976 16.7351 84.7449 16.5245 84.8296 16.2619L87.45 9.88897C87.4678 9.84113 87.5149 9.81058 87.566 9.81377H89.1401C89.1829 9.8088 89.2249 9.82788 89.2492 9.86331C89.2736 9.89874 89.2762 9.94471 89.2561 9.98269L83.8296 22.3305C83.8116 22.3757 83.7671 22.4049 83.7183 22.4034Z" fill="#007896"/>
<path d="M91.9415 17.8353V22.2829C91.9415 22.3468 91.8896 22.3986 91.8255 22.3986H90.2642C90.2001 22.3986 90.1482 22.3468 90.1482 22.2829V9.93399C90.1482 9.87009 90.2001 9.81829 90.2642 9.81829H91.459C91.523 9.81829 91.575 9.87009 91.575 9.93399L91.5854 11.1477H91.6747C91.715 11.1484 91.7527 11.1283 91.7745 11.0945L91.8487 10.9788C91.9542 10.8456 92.0706 10.7214 92.1967 10.6074C92.3893 10.423 92.6026 10.2615 92.8324 10.1261C93.1326 9.96124 93.4532 9.83637 93.7859 9.75465C94.2039 9.64314 94.635 9.58789 95.0677 9.59036C96.2348 9.56432 97.3552 10.0472 98.1359 10.9128C98.9541 11.7945 99.3632 12.9565 99.3632 14.399C99.3632 15.8121 98.958 16.9668 98.1475 17.8631C97.3919 18.7353 96.287 19.2278 95.1315 19.2075C94.7074 19.2107 94.2844 19.163 93.8718 19.0652C93.5522 18.9979 93.2453 18.8808 92.9623 18.7181C92.7665 18.5966 92.5797 18.4612 92.4032 18.3132C92.2855 18.2189 92.1799 18.1104 92.0888 17.9904L92.0819 17.9799L91.9972 17.833L91.9415 17.8353ZM92.6642 16.8194C93.2214 17.449 94.0412 17.7832 94.881 17.7231C95.5021 17.6962 96.0923 17.4454 96.5421 17.0173C97.2133 16.3709 97.549 15.4997 97.549 14.4036C97.549 13.4417 97.2825 12.6476 96.7497 12.0213C96.2557 11.4131 95.5078 11.0664 94.7232 11.0818C93.9363 11.0678 93.183 11.3995 92.663 11.9889C92.1078 12.5936 91.8302 13.3985 91.8302 14.4036C91.8302 15.4086 92.1082 16.2139 92.6642 16.8194Z" fill="#007896"/>
<path d="M101.514 9.69213V7.13858C101.514 7.07148 101.568 7.01709 101.636 7.01709H103.188C103.255 7.01709 103.31 7.07148 103.31 7.13858V9.69213C103.31 9.75923 103.364 9.81362 103.431 9.81362H105.816C105.884 9.81362 105.938 9.86801 105.938 9.93511V11.1118C105.938 11.1789 105.884 11.2333 105.816 11.2333H103.431C103.364 11.2333 103.31 11.2877 103.31 11.3548V16.3034C103.31 17.2213 103.735 17.6802 104.586 17.6802C104.79 17.6779 104.994 17.6448 105.189 17.5819C105.361 17.5334 105.527 17.4638 105.682 17.3748L105.741 17.3447C105.771 17.3296 105.806 17.3276 105.838 17.3392C105.869 17.3508 105.895 17.375 105.908 17.406L106.372 18.4728C106.396 18.523 106.381 18.5833 106.336 18.6163C106.257 18.6739 106.175 18.7264 106.09 18.7736C105.901 18.8722 105.704 18.9524 105.5 19.0131C105.068 19.1542 104.615 19.2196 104.161 19.2063C103.29 19.1793 102.638 18.9252 102.203 18.4439C101.739 17.934 101.507 17.2274 101.507 16.3242V11.349C101.507 11.2819 101.452 11.2275 101.385 11.2275H99.949C99.9167 11.2275 99.8857 11.2147 99.8629 11.1919C99.84 11.1691 99.8272 11.1382 99.8272 11.106V9.93626C99.8272 9.86917 99.8817 9.81478 99.949 9.81478H101.392C101.425 9.81478 101.456 9.80182 101.479 9.77878C101.501 9.75575 101.514 9.72455 101.514 9.69213Z" fill="#007896"/>
<path d="M114.867 17.9011C113.961 18.775 112.851 19.212 111.536 19.212C110.207 19.212 109.097 18.775 108.206 17.9011C107.315 17.0271 106.87 15.8759 106.87 14.4474C106.87 13.0049 107.319 11.8356 108.217 10.9393C109.116 10.043 110.223 9.5948 111.537 9.5948C112.788 9.56794 113.993 10.0584 114.868 10.9497C115.773 11.8537 116.225 13.0196 116.225 14.4474C116.225 15.8751 115.772 17.0264 114.867 17.9011ZM113.591 16.8598C114.146 16.255 114.423 15.4428 114.423 14.4231C114.423 13.4203 114.146 12.6042 113.591 11.9748C113.08 11.3688 112.324 11.0238 111.53 11.0353C110.737 11.0237 109.979 11.3625 109.46 11.9609C108.898 12.578 108.617 13.3976 108.617 14.4196C108.617 15.4416 108.894 16.2539 109.449 16.8563C109.982 17.4344 110.733 17.7634 111.52 17.7634C112.307 17.7634 113.058 17.4344 113.591 16.8563V16.8598Z" fill="#007896"/>
</g>
<defs>
<clipPath id="clip0_388_748">
<rect width="116" height="28" fill="white" transform="translate(0.224976)"/>
</clipPath>
</defs>
</svg>
